<svg xmlns="http://www.w3.org/2000/svg" width="283" height="137.232" viewBox="0 0 283 137.232">
  <g id="Kids_Studying_from_Home-pana_BLUE" data-name="Kids Studying from Home-pana BLUE" transform="translate(-51.639 -250.388)">
    <g id="freepik--character-2--inject-19" transform="translate(205.656 272.396)">
      <path id="Path_1548" data-name="Path 1548" d="M324.129,360.964s-5.551.3-7.689,1.14-12.407,5.743-12.407,5.743-13.916,5.934-16.7,7.511c-3.551,2-11.437,4.247-9.963,16.6h13.814l5.736-8.74,6.617.348,12.919,8.044h89.547s1.571-12.728-4.882-18.143-31.738-11.185-31.738-11.185-8.877-1.891-11.048-1.891h0Z" transform="translate(-277.194 -307.284)" fill="#295087"/>
      <g id="Group_387" data-name="Group 387" transform="translate(31.435 65.335)" opacity="0.3">
        <path id="Path_1549" data-name="Path 1549" d="M329.157,384.6a8.235,8.235,0,0,1,8.877,4.254c.683,1.366,1,2.964,2.171,3.919a6.288,6.288,0,0,0,4.063,1.017l11.451.266a5.388,5.388,0,0,0,2.854-.451c1.407-.792,1.8-2.581,2.465-4.056a11.028,11.028,0,0,1,6.227-5.586,16.389,16.389,0,0,1,8.474-.621c1.857.314,3.967.813,5.463-.314.983-.737,1.413-1.98,2.048-3.025s1.844-2,3.011-1.611c1.57.519,1.878,3.08,3.517,3.3a6.211,6.211,0,0,0,2.117-.5c.71-.164,6.344-1.5,6.282-.765,0,0-4.937,2.677-5.217,2.923-5.572,4.9-11.192,9.478-16.764,14.374l-52.968-.594Z" transform="translate(-323.23 -378.3)"/>
      </g>
      <path id="Path_1550" data-name="Path 1550" d="M412.991,372.021a2.287,2.287,0,0,0-.43-.048,1.263,1.263,0,0,0-.942.587,14.922,14.922,0,0,0-1.707,3.612,21.208,21.208,0,0,0-.806,5.62,5.141,5.141,0,0,1-.171-1.687,13.353,13.353,0,0,1,.642-4.042,12.521,12.521,0,0,1,1.844-3.667,1.407,1.407,0,0,1,1.14-.567C412.875,371.857,413,372.008,412.991,372.021Z" transform="translate(-318.974 -310.913)" fill="#263238"/>
      <path id="Path_1551" data-name="Path 1551" d="M331.271,383.354a2.629,2.629,0,0,1-.273-.683,14,14,0,0,1-.389-1.98,38.24,38.24,0,0,1-.1-6.644c.157-2.588.423-4.916.683-6.6.116-.84.225-1.516.307-1.98a2.848,2.848,0,0,1,.171-.724,3.539,3.539,0,0,1-.034.737c-.055.553-.116,1.215-.191,2-.178,1.687-.4,4.015-.56,6.589a46.908,46.908,0,0,0,0,6.6C330.991,382.3,331.326,383.3,331.271,383.354Z" transform="translate(-294.073 -308.664)" fill="#263238"/>
      <path id="Path_1552" data-name="Path 1552" d="M301.578,389.458a14.524,14.524,0,0,0-3.482-3.578A14.756,14.756,0,0,0,293.48,384a3.919,3.919,0,0,1,1.489.143,10.009,10.009,0,0,1,3.325,1.441,9.737,9.737,0,0,1,2.588,2.54A4.042,4.042,0,0,1,301.578,389.458Z" transform="translate(-282.359 -314.767)" fill="#263238"/>
      <path id="Path_1553" data-name="Path 1553" d="M441.449,377.9c0,.061-1.038.089-2.731.253a27.014,27.014,0,0,0-6.33,1.366,36.99,36.99,0,0,0-5.859,2.82,24.521,24.521,0,0,1-2.369,1.325,3.583,3.583,0,0,1,.58-.451c.382-.273.949-.642,1.659-1.093a31.247,31.247,0,0,1,5.866-2.936,23.9,23.9,0,0,1,6.432-1.311c.84-.048,1.516-.068,1.987-.048A3.1,3.1,0,0,1,441.449,377.9Z" transform="translate(-323.806 -312.812)" fill="#263238"/>
      <path id="Path_1554" data-name="Path 1554" d="M427.254,377.71a14.155,14.155,0,0,1-1.331.505,10.331,10.331,0,0,0-5.039,4.357c-.444.751-.642,1.263-.683,1.243a3.769,3.769,0,0,1,.471-1.366,9.02,9.02,0,0,1,5.183-4.479,3.619,3.619,0,0,1,1.4-.259Z" transform="translate(-322.55 -312.777)" fill="#263238"/>
      <path id="Path_1555" data-name="Path 1555" d="M297.033,388.37c0,.061-.942.3-2.417.84a13.657,13.657,0,0,0-5.169,3.168,7.921,7.921,0,0,0-2.233,5.463,8.194,8.194,0,0,0,.533,2.465,2.4,2.4,0,0,1-.348-.6,5.34,5.34,0,0,1-.43-1.85,7.825,7.825,0,0,1,2.219-5.736,12.974,12.974,0,0,1,5.347-3.162,18.308,18.308,0,0,1,1.816-.5A2.731,2.731,0,0,1,297.033,388.37Z" transform="translate(-280.292 -316.159)" fill="#263238"/>
      <path id="Path_1556" data-name="Path 1556" d="M429.711,399.92a17.352,17.352,0,0,0,.683-2.089,13.445,13.445,0,0,0,.041-5.244,8.61,8.61,0,0,0-.956-2.731,6.371,6.371,0,0,0-1.543-1.755c-1.072-.826-1.83-1.215-1.8-1.27a1.823,1.823,0,0,1,.553.232,10.064,10.064,0,0,1,1.366.84,6.146,6.146,0,0,1,1.673,1.782,8.632,8.632,0,0,1,1.031,2.806,12.572,12.572,0,0,1-.15,5.367,7.241,7.241,0,0,1-.58,1.536C429.861,399.79,429.731,399.961,429.711,399.92Z" transform="translate(-324.434 -315.67)" fill="#263238"/>
      <path id="Path_1557" data-name="Path 1557" d="M352.495,345.366v-.191c-7.764-1.011-11.342-8.5-11.854-17.46a111.756,111.756,0,0,1-.15-15.446,80.827,80.827,0,0,1,2.608-17.993,21.831,21.831,0,0,1,18.17-7c11.881.895,18.061,16.859,18.061,16.859s-.082,24.261-.785,29.164a39.944,39.944,0,0,0-.594,6.651l-.28,6a12.6,12.6,0,0,1-12.585,12.018h0a12.591,12.591,0,0,1-12.592-12.6Z" transform="translate(-297.215 -284.073)" fill="#ffbe9d"/>
      <path id="Path_1558" data-name="Path 1558" d="M396.4,334.083c.2-.089,8.344-2.533,8.139,5.79s-8.515,6.4-8.522,6.146S396.4,334.083,396.4,334.083Z" transform="translate(-314.881 -298.814)" fill="#ffbe9d"/>
      <path id="Path_1559" data-name="Path 1559" d="M399.847,344.205c.041,0,.143.1.389.219a1.407,1.407,0,0,0,1.079.048c.888-.3,1.666-1.68,1.741-3.175a4.78,4.78,0,0,0-.355-2.089,1.659,1.659,0,0,0-1.065-1.134.724.724,0,0,0-.86.376c-.123.225-.075.4-.116.41s-.178-.143-.1-.485a.97.97,0,0,1,.341-.519,1.093,1.093,0,0,1,.806-.191A2.048,2.048,0,0,1,403.192,339a4.95,4.95,0,0,1,.444,2.328c-.1,1.68-.99,3.223-2.206,3.544a1.543,1.543,0,0,1-1.318-.253C399.86,344.4,399.819,344.219,399.847,344.205Z" transform="translate(-316.093 -300.072)" fill="#eb996e"/>
      <path id="Path_1560" data-name="Path 1560" d="M347.467,330.2c.225.239,1.591-.792,3.544-.8s3.414.956,3.592.717c.1-.109-.13-.533-.751-.983a4.964,4.964,0,0,0-2.882-.86,4.78,4.78,0,0,0-2.82.929C347.555,329.663,347.357,330.093,347.467,330.2Z" transform="translate(-299.473 -297.097)" fill="#263238"/>
      <path id="Path_1561" data-name="Path 1561" d="M375.457,329.712c.232.232,1.6-.792,3.544-.806s3.414.956,3.6.717c.1-.109-.13-.533-.758-.983a5,5,0,0,0-2.882-.86,4.78,4.78,0,0,0-2.813.929C375.553,329.173,375.348,329.6,375.457,329.712Z" transform="translate(-308.35 -296.941)" fill="#263238"/>
      <path id="Path_1562" data-name="Path 1562" d="M378.428,321.132c.1.41,1.284.457,2.574.874s2.3,1,2.622.717c.143-.143.061-.519-.307-.97a4.186,4.186,0,0,0-4.1-1.25C378.667,320.668,378.387,320.934,378.428,321.132Z" transform="translate(-309.301 -294.596)" fill="#263238"/>
      <path id="Path_1563" data-name="Path 1563" d="M349.222,319.691c.341.382,1.6.437,2.806.137s1.919-.854,1.584-1.229-1.6-.437-2.806-.13S348.887,319.316,349.222,319.691Z" transform="translate(-300.012 -293.926)" fill="#263238"/>
      <path id="Path_1564" data-name="Path 1564" d="M368.66,351.17c0,.116.232.321.751.4a2.731,2.731,0,0,0,2.977-2.26c.075-.519-.055-.826-.178-.826-.246,0-.444,1.1-1.413,1.823S368.715,350.931,368.66,351.17Z" transform="translate(-306.204 -303.507)" fill="#263238"/>
      <path id="Path_1565" data-name="Path 1565" d="M358.14,371.374s9.976.157,12.332-1.564c0,0-1.5,4.78-12.066,4.281Z" transform="translate(-302.867 -310.272)" fill="#eb996e"/>
      <path id="Path_1566" data-name="Path 1566" d="M333.034,301.076c-.123-1.953-.717-3.865-.724-5.825a10.564,10.564,0,0,1,3.551-7.723,12.578,12.578,0,0,1,8.01-3.073c2.192-.055,4.4.41,6.562.089a55.619,55.619,0,0,0,5.36-1.543,13.657,13.657,0,0,1,10.994,2.048,38,38,0,0,1,8.522,7.689s8.522.253,8.139,12.2-1.222,13.445-1.222,13.445l-2.813-.854a5.74,5.74,0,0,1-.273,4.049,2.178,2.178,0,0,1-1.919,1.127c-1.646-.082-2.192-1.98-2.376-3.517q-.751-6.091-.915-12.23c-.034-1.147-.28-2.595-1.366-2.861a4.132,4.132,0,0,0-1.946.376,3.626,3.626,0,0,1-3.626-1.161c-.137,1.564-2.253,2.267-3.674,1.6s-2.26-2.124-3.011-3.5a6.3,6.3,0,0,1-.2,2.581,2.137,2.137,0,0,1-1.939,1.489c-1.011-.048-1.7-1.017-2.171-1.912a23.9,23.9,0,0,1-2.363-6.89,14.449,14.449,0,0,1-6.023,9.171q-.533-1.57-1.058-3.134a6.18,6.18,0,0,1-1.482,1.659,2.11,2.11,0,0,1-2.117.28,1.366,1.366,0,0,1-.683-1.311,2.424,2.424,0,0,1-3.162.792,2.609,2.609,0,0,1-.929-1c.4,6.091.8,12.694-.328,18.491l-2.8-6.316a24.507,24.507,0,0,1-2.049-11.95,16.169,16.169,0,0,0,.027-2.3Z" transform="translate(-294.675 -282.618)" fill="#263238"/>
      <path id="Path_1567" data-name="Path 1567" d="M394.415,297.851c.055,0,.157-.546.594-1.318a5.463,5.463,0,0,1,2.527-2.253,5.34,5.34,0,0,1,3.373-.212c.86.225,1.332.539,1.366.492s-.1-.109-.307-.246a4.6,4.6,0,0,0-1.011-.43,5.183,5.183,0,0,0-3.551.137,5.244,5.244,0,0,0-2.595,2.431,4.212,4.212,0,0,0-.369,1.024C394.4,297.708,394.394,297.851,394.415,297.851Z" transform="translate(-314.369 -286.112)" fill="#263238"/>
      <path id="Path_1568" data-name="Path 1568" d="M392.869,294.828a2.267,2.267,0,0,0,.362-.259,5.358,5.358,0,0,0,.819-.881,6.733,6.733,0,0,0,.41-7.552,6,6,0,0,0-.724-.97c-.191-.2-.314-.3-.328-.287a12.387,12.387,0,0,1,.867,1.366,6.992,6.992,0,0,1-.4,7.327C393.32,294.384,392.835,294.787,392.869,294.828Z" transform="translate(-313.881 -283.335)" fill="#263238"/>
      <path id="Path_1569" data-name="Path 1569" d="M362.441,337.409c-.123-.034-.355.4-.628,1.12-.137.355-.287.792-.437,1.277-.075.246-.15.5-.232.758a3.9,3.9,0,0,0-.2.935,1.489,1.489,0,0,0,.4,1.113,1.7,1.7,0,0,0,.942.471,1.912,1.912,0,0,0,.888-.075,2.678,2.678,0,0,0,.642-.341c.683-.539.867-.976.8-1.058s-.505.2-1.134.512a1.564,1.564,0,0,1-1.045.143.888.888,0,0,1-.444-.253.6.6,0,0,1-.137-.471,3.313,3.313,0,0,1,.15-.731c.061-.266.116-.526.178-.785.109-.5.191-.949.253-1.332C362.55,337.928,362.557,337.436,362.441,337.409Z" transform="translate(-303.754 -299.995)" fill="#263238"/>
      <path id="Path_1570" data-name="Path 1570" d="M398.885,312.073a2.363,2.363,0,0,0,.1-.587c.048-.376.109-.929.164-1.612a18,18,0,0,0-.287-5.347,9.007,9.007,0,0,0-2.608-4.657,5.84,5.84,0,0,0-1.366-.929,2.049,2.049,0,0,0-.56-.212,10.924,10.924,0,0,1,1.762,1.3,9.348,9.348,0,0,1,2.458,4.568,20.176,20.176,0,0,1,.335,5.244A18.667,18.667,0,0,0,398.885,312.073Z" transform="translate(-314.345 -287.728)" fill="#455a64"/>
      <path id="Path_1571" data-name="Path 1571" d="M390.389,309.163a4.719,4.719,0,0,0,.976-1.2,11.01,11.01,0,0,0,1.475-3.414,11.13,11.13,0,0,0,.253-3.728,4.7,4.7,0,0,0-.321-1.509c-.048,0,.061.587.109,1.523a12.8,12.8,0,0,1-.335,3.64,13.181,13.181,0,0,1-1.366,3.414A14.847,14.847,0,0,0,390.389,309.163Z" transform="translate(-313.094 -287.912)" fill="#455a64"/>
      <path id="Path_1572" data-name="Path 1572" d="M364.03,297.964a1.23,1.23,0,0,0,0-.287q0-.328,0-.819a24.22,24.22,0,0,1,.232-2.991,8.877,8.877,0,0,1,1.6-4.049,5.763,5.763,0,0,1,1.967-1.625,7.512,7.512,0,0,1,2.663-.731,10.434,10.434,0,0,1,5.251.949,12.231,12.231,0,0,1,2.049,1.195,12.422,12.422,0,0,1,1.543,1.366,10.79,10.79,0,0,1,1.741,2.41c.341.621.478.99.505.983s0-.1-.082-.28a7.106,7.106,0,0,0-.314-.758,10.5,10.5,0,0,0-1.7-2.506,12.154,12.154,0,0,0-1.543-1.42,12.443,12.443,0,0,0-2.049-1.25,10.557,10.557,0,0,0-5.394-1,7.512,7.512,0,0,0-2.765.772,5.852,5.852,0,0,0-2.048,1.721,8.836,8.836,0,0,0-1.6,4.186,18.8,18.8,0,0,0-.137,3.018v.819a.936.936,0,0,0,.075.294Z" transform="translate(-304.708 -284.046)" fill="#455a64"/>
      <path id="Path_1573" data-name="Path 1573" d="M350.079,299.319a.97.97,0,0,0,.089-.287c.048-.219.109-.5.184-.826.164-.724.389-1.769.758-3.032a17.923,17.923,0,0,1,1.762-4.247,9.451,9.451,0,0,1,4.029-3.776,12.422,12.422,0,0,1,5.463-1.12,22.142,22.142,0,0,1,4.575.574c1.284.287,2.315.574,3.032.758l.819.219a.15.15,0,1,0,.021-.061l-.813-.266c-.683-.225-1.728-.546-3.011-.854a21.1,21.1,0,0,0-4.623-.683,12.442,12.442,0,0,0-5.592,1.133,9.56,9.56,0,0,0-4.131,3.9,17.235,17.235,0,0,0-1.728,4.329c-.348,1.284-.539,2.342-.683,3.066-.061.369-.1.649-.13.847A1.363,1.363,0,0,0,350.079,299.319Z" transform="translate(-300.31 -283.599)" fill="#455a64"/>
      <path id="Path_1574" data-name="Path 1574" d="M342.975,302.352c.048,0-.068-.922-.184-2.4a12.8,12.8,0,0,1,.621-5.661,6.453,6.453,0,0,1,1.755-2.547,5,5,0,0,1,4.6-1.1,1.046,1.046,0,0,0-.15-.082,2.734,2.734,0,0,0-.458-.15,4.2,4.2,0,0,0-1.782,0,5.258,5.258,0,0,0-2.383,1.14,6.522,6.522,0,0,0-1.857,2.649,12.038,12.038,0,0,0-.553,5.784c.082.744.178,1.366.253,1.748A2.53,2.53,0,0,0,342.975,302.352Z" transform="translate(-297.89 -285.061)" fill="#455a64"/>
      <path id="Path_1575" data-name="Path 1575" d="M382.3,344.012c.082,0,.109-.212.068-.437s-.15-.4-.232-.376-.109.212-.061.437S382.222,344.025,382.3,344.012Z" transform="translate(-310.452 -301.832)" fill="#eb996e"/>
      <path id="Path_1576" data-name="Path 1576" d="M377.285,343.092a.252.252,0,0,0,.225-.2c.041-.137,0-.259-.061-.287s-.178.061-.219.191S377.21,343.065,377.285,343.092Z" transform="translate(-308.915 -301.643)" fill="#eb996e"/>
      <path id="Path_1577" data-name="Path 1577" d="M379.857,346.022c.082,0,.164-.164.191-.389s0-.41-.116-.423-.164.171-.184.4S379.775,346.015,379.857,346.022Z" transform="translate(-309.719 -302.47)" fill="#eb996e"/>
      <path id="Path_1578" data-name="Path 1578" d="M386.187,345.432c.075,0,.089-.225,0-.451s-.184-.382-.266-.362-.089.225,0,.451S386.1,345.452,386.187,345.432Z" transform="translate(-311.658 -302.282)" fill="#eb996e"/>
      <path id="Path_1579" data-name="Path 1579" d="M352.367,342.86c.082,0,.164-.143.184-.348s0-.369-.109-.382-.164.15-.184.348S352.278,342.853,352.367,342.86Z" transform="translate(-301 -301.493)" fill="#eb996e"/>
      <path id="Path_1580" data-name="Path 1580" d="M347.58,342.7c.082,0,.15-.184.15-.4s-.068-.41-.15-.41-.15.184-.15.41S347.5,342.7,347.58,342.7Z" transform="translate(-299.47 -301.417)" fill="#eb996e"/>
      <path id="Path_1581" data-name="Path 1581" d="M343.662,342.462c.082,0,.184-.157.232-.376s0-.423-.068-.437-.184.15-.225.376S343.58,342.442,343.662,342.462Z" transform="translate(-298.249 -301.34)" fill="#eb996e"/>
      <path id="Path_1582" data-name="Path 1582" d="M349.748,346.734c.082,0,.1-.219,0-.444s-.191-.389-.266-.362-.089.225,0,.444S349.673,346.762,349.748,346.734Z" transform="translate(-300.101 -302.697)" fill="#eb996e"/>
      <path id="Path_1583" data-name="Path 1583" d="M345.367,346.222c.082,0,.164-.123.184-.3s0-.335-.109-.341-.164.123-.184.3S345.285,346.215,345.367,346.222Z" transform="translate(-298.78 -302.587)" fill="#eb996e"/>
      <path id="Path_1584" data-name="Path 1584" d="M376.817,334.09a1.8,1.8,0,0,0,1.584,1.946,1.714,1.714,0,0,0,1.973-1.461,1.8,1.8,0,0,0-1.577-1.946,1.714,1.714,0,0,0-1.98,1.461Z" transform="translate(-308.788 -298.472)" fill="#263238"/>
      <path id="Path_1585" data-name="Path 1585" d="M350.586,334.64a1.789,1.789,0,0,0,1.577,1.946,1.714,1.714,0,0,0,1.973-1.461,1.789,1.789,0,0,0-1.577-1.946,1.707,1.707,0,0,0-1.973,1.461Z" transform="translate(-300.469 -298.647)" fill="#263238"/>
      <path id="Path_1586" data-name="Path 1586" d="M317.384,407.487,294.85,429.6h52.114s2.731-4.411,7.778-4.042,27.723,6.651,34.552,5.531l-5.975-24.514s-18.041-5.231-28.31-3.25a14.852,14.852,0,0,0-7.511,3.96h0Z" transform="translate(-282.794 -320.759)" fill="#fafafa"/>
      <path id="Path_1587" data-name="Path 1587" d="M317.212,407.421h1.256l3.674-.048L336,407.23l9.819-.089h1.536c-.164.068-.034,0-.068,0l.068-.15.253-.239c.178-.15.341-.307.526-.457a15.024,15.024,0,0,1,2.349-1.6,14.544,14.544,0,0,1,5.681-1.775,35.3,35.3,0,0,1,6.33-.184,59.914,59.914,0,0,1,6.644.683,114.467,114.467,0,0,1,14.005,2.957h.089v.1c1.864,7.614,3.885,15.89,5.988,24.507l.048.2h-.191a16.379,16.379,0,0,1-2.165.123h-1.086l-1.086-.082c-.731-.048-1.454-.13-2.178-.225s-1.461-.178-2.192-.294c-2.923-.444-5.872-1-8.836-1.611-4.507-.915-8.918-1.939-13.268-2.806-2.165-.382-4.363-.97-6.432-.341a9.266,9.266,0,0,0-4.971,3.687l-.055.082h-.089l-52.114-.048h-.3l.219-.212,16.641-16.163,4.5-4.363,1.168-1.12.4-.376-.389.41-1.154,1.154-4.459,4.418-16.47,16.217-.089-.212,52.114-.048-.15.082a9.56,9.56,0,0,1,5.169-3.851,8.2,8.2,0,0,1,3.312-.212c1.106.123,2.192.341,3.284.546,4.357.867,8.768,1.891,13.274,2.806,2.957.608,5.9,1.168,8.815,1.6.724.123,1.454.219,2.178.3s1.441.178,2.165.219l1.072.089h1.072a15.427,15.427,0,0,0,2.11-.109l-.143.212c-2.1-8.617-4.1-16.893-5.961-24.514l.109.116a114.805,114.805,0,0,0-13.95-2.97c-2.253-.328-4.459-.574-6.617-.683a35.4,35.4,0,0,0-6.282.171,14.3,14.3,0,0,0-5.592,1.728,15.311,15.311,0,0,0-2.315,1.571c-.178.143-.341.3-.519.451l-.246.232-.123.116c-.041,0,.075,0-.1.048h-1.5l-9.8.048-13.855.048h-4.636Z" transform="translate(-282.623 -320.692)" fill="#263238"/>
      <path id="Path_1588" data-name="Path 1588" d="M371.111,431.588c-.1,0,0-5.026.157-11.212s.417-11.212.512-11.205,0,5.019-.157,11.212S371.206,431.588,371.111,431.588Z" transform="translate(-306.968 -322.756)" fill="#263238"/>
      <path id="Path_1589" data-name="Path 1589" d="M348.326,429.93a3.81,3.81,0,0,0-1.25-1.536,4.984,4.984,0,0,0-2.192-.874,9.669,9.669,0,0,0-3.182.137,67.545,67.545,0,0,1-19.413,1.366l-.41-.034.314-.266a32.664,32.664,0,0,1,17.009-7.545c.621-.075,1.236-.143,1.85-.184a3.619,3.619,0,0,1,1.871.177,1.024,1.024,0,0,1,.6.819,1.175,1.175,0,0,1-.369.922,4.651,4.651,0,0,1-1.557.888,14.039,14.039,0,0,1-6.432.963,13.552,13.552,0,0,1-2.909-.56,9.2,9.2,0,0,1-1.318-.5,4.32,4.32,0,0,1-1.12-.778,2.151,2.151,0,0,1-.683-1.133,1.591,1.591,0,0,1,.28-1.222,4.964,4.964,0,0,1,1.85-1.256,28.375,28.375,0,0,1,3.271-1.325c.922-.307,1.652-.492,2.144-.608.253-.061.437-.1.567-.123a.63.63,0,0,1,.2,0,.742.742,0,0,1-.191.061l-.553.157c-.492.137-1.209.348-2.117.683a30.261,30.261,0,0,0-3.23,1.366,4.78,4.78,0,0,0-1.755,1.209,1.366,1.366,0,0,0-.232,1.045,1.932,1.932,0,0,0,.615,1,4.207,4.207,0,0,0,1.058.724,10.061,10.061,0,0,0,1.277.464,13.187,13.187,0,0,0,2.861.533,13.765,13.765,0,0,0,6.282-.97,4.417,4.417,0,0,0,1.434-.819.84.84,0,0,0,.28-.683.683.683,0,0,0-.417-.546,3.332,3.332,0,0,0-1.7-.143c-.6.041-1.215.109-1.83.191a31.963,31.963,0,0,0-7.4,1.885,32.292,32.292,0,0,0-9.41,5.572l-.1-.3a69.451,69.451,0,0,0,19.345-1.236,9.608,9.608,0,0,1,3.25-.1,5.074,5.074,0,0,1,2.233.942,3.557,3.557,0,0,1,.99,1.147,1.73,1.73,0,0,1,.184.485Z" transform="translate(-291.367 -325.318)" fill="#263238"/>
      <path id="Path_1590" data-name="Path 1590" d="M411.138,442.252a.973.973,0,0,1,.109.171c.061.116.164.321.28.533.246.505.594,1.195,1.024,2.048l.048.089-.1.034a28.458,28.458,0,0,1-8.372,1.222,29.1,29.1,0,0,1-11.793-2.588c-2.991-1.366-5.715-2.861-8.365-3.81a16.477,16.477,0,0,0-7.293-1.154,10.346,10.346,0,0,0-4.7,1.6,12.46,12.46,0,0,0-1.441,1.147,5.537,5.537,0,0,1,1.366-1.263,10.147,10.147,0,0,1,4.78-1.741,16.531,16.531,0,0,1,7.429,1.1c2.69.949,5.429,2.465,8.4,3.79a29.293,29.293,0,0,0,11.656,2.608,29.8,29.8,0,0,0,8.269-1.058l-.055.123c-.4-.894-.717-1.591-.956-2.11-.089-.219-.171-.4-.232-.546A.629.629,0,0,1,411.138,442.252Z" transform="translate(-306.797 -332.054)" fill="#263238"/>
      <path id="Path_1591" data-name="Path 1591" d="M386.512,421.916a37.7,37.7,0,0,1-.273-7.306A37.7,37.7,0,0,1,386.512,421.916Z" transform="translate(-311.758 -324.481)" fill="#263238"/>
      <path id="Path_1592" data-name="Path 1592" d="M391.979,429.093a11.866,11.866,0,0,1-1.516-.963,42.524,42.524,0,0,0-3.715-2.192c-1.5-.778-2.9-1.366-3.926-1.8a10.77,10.77,0,0,1-1.652-.683,7.686,7.686,0,0,1,1.741.457,28.054,28.054,0,0,1,4,1.721,27.646,27.646,0,0,1,3.7,2.287A7.2,7.2,0,0,1,391.979,429.093Z" transform="translate(-310.171 -327.288)" fill="#263238"/>
      <path id="Path_1593" data-name="Path 1593" d="M408.22,424.08a55.2,55.2,0,0,1-5.633,2.731,56.268,56.268,0,0,1-5.777,2.417,56.071,56.071,0,0,1,5.633-2.731,54.473,54.473,0,0,1,5.777-2.417Z" transform="translate(-315.132 -327.485)" fill="#263238"/>
      <path id="Path_1594" data-name="Path 1594" d="M406.93,421.567a34.223,34.223,0,0,1-.109-4.923,34.746,34.746,0,0,1,.239-4.923,34.652,34.652,0,0,1,.116,4.923,35.4,35.4,0,0,1-.246,4.923Z" transform="translate(-318.293 -323.564)" fill="#263238"/>
      <path id="Path_1595" data-name="Path 1595" d="M402.875,430.476c-.1,0-.212-.266-.253-.615s0-.642.109-.683.2.266.246.615S402.985,430.462,402.875,430.476Z" transform="translate(-316.97 -329.1)" fill="#263238"/>
      <path id="Path_1596" data-name="Path 1596" d="M404.493,430.02c-.1,0-.2-.4-.239-.9s0-.915.109-.929.212.4.246.908S404.6,430.013,404.493,430.02Z" transform="translate(-317.489 -328.788)" fill="#263238"/>
      <path id="Path_1597" data-name="Path 1597" d="M404.077,432.154c.041,0,.123.362.451.895a1.243,1.243,0,0,0,.867.574.594.594,0,0,0,.533-.212.492.492,0,0,0,.089-.574l.253-.15a2.5,2.5,0,0,0,1.687,1.113,2.253,2.253,0,0,0,2.124-.731,2.342,2.342,0,0,0,.307-2.827,1.755,1.755,0,0,0-1.045-.751,2.623,2.623,0,0,0-1.174,0,5.012,5.012,0,0,0-1.591.751,3.128,3.128,0,0,1-.567.348,3.183,3.183,0,0,1,.485-.458,4.52,4.52,0,0,1,1.612-.888,2.861,2.861,0,0,1,1.3-.041,2.049,2.049,0,0,1,1.25.86,2.458,2.458,0,0,1,.41,1.611,2.807,2.807,0,0,1-.731,1.632,2.581,2.581,0,0,1-2.445.826,2.772,2.772,0,0,1-1.878-1.3l.253-.157a.785.785,0,0,1-.137.908.847.847,0,0,1-.744.239,1.366,1.366,0,0,1-.983-.717,3.081,3.081,0,0,1-.273-.717C404.07,432.249,404.064,432.161,404.077,432.154Z" transform="translate(-317.435 -329.092)" fill="#263238"/>
      <path id="Path_1598" data-name="Path 1598" d="M421.277,429.445a.559.559,0,0,1,.355-.1,1.188,1.188,0,0,1,.867.485,1.366,1.366,0,0,1,.171,1.482,1.837,1.837,0,0,1-1.591.881,1.939,1.939,0,0,1-1.618-.826,1.366,1.366,0,0,1-.109-1.482,1.2,1.2,0,0,1,.792-.608.8.8,0,0,1,.362,0,.81.81,0,0,0-.328.1,1.222,1.222,0,0,0-.608.594,1.147,1.147,0,0,0,.164,1.174,1.632,1.632,0,0,0,1.366.683,1.53,1.53,0,0,0,1.311-.683,1.1,1.1,0,0,0-.082-1.168,1.14,1.14,0,0,0-.683-.5C421.407,429.445,421.284,429.48,421.277,429.445Z" transform="translate(-322.228 -329.129)" fill="#263238"/>
      <path id="Path_1599" data-name="Path 1599" d="M421.389,426.6c-.1,0-.2-.464-.246-1.045s0-1.058.1-1.065.212.458.253,1.045S421.491,426.593,421.389,426.6Z" transform="translate(-322.844 -327.615)" fill="#263238"/>
      <path id="Path_1600" data-name="Path 1600" d="M422.078,435.913c-.1,0-.178-.341-.178-.772s.082-.772.178-.772.178.348.178.772S422.18,435.913,422.078,435.913Z" transform="translate(-323.089 -330.748)" fill="#263238"/>
      <path id="Path_1601" data-name="Path 1601" d="M418.082,432.926c.068.068-.246.526-.717,1.031s-.9.86-.97.792.246-.526.683-1.031S418.007,432.858,418.082,432.926Z" transform="translate(-321.341 -330.288)" fill="#263238"/>
      <path id="Path_1602" data-name="Path 1602" d="M426.775,434.5c-.055.082-.437-.082-.854-.369s-.717-.58-.683-.683.437.089.86.369S426.83,434.43,426.775,434.5Z" transform="translate(-324.148 -330.447)" fill="#263238"/>
      <path id="Path_1603" data-name="Path 1603" d="M426.853,429.812c0,.1-.266.266-.683.382s-.724.137-.751.041.26-.266.683-.382S426.819,429.716,426.853,429.812Z" transform="translate(-324.205 -329.283)" fill="#263238"/>
      <path id="Path_1604" data-name="Path 1604" d="M425.438,426.375c.082.061-.082.389-.355.737s-.567.574-.642.512.082-.389.362-.737S425.363,426.314,425.438,426.375Z" transform="translate(-323.89 -328.209)" fill="#263238"/>
      <path id="Path_1605" data-name="Path 1605" d="M418.232,427.96c-.055.082-.41-.041-.792-.273s-.683-.492-.615-.58.41.041.8.273S418.307,427.872,418.232,427.96Z" transform="translate(-321.477 -328.436)" fill="#263238"/>
      <path id="Path_1606" data-name="Path 1606" d="M416.366,429.968c0,.1-.321.178-.683.178s-.683-.082-.683-.178.314-.178.683-.178S416.366,429.865,416.366,429.968Z" transform="translate(-320.901 -329.296)" fill="#263238"/>
      <path id="Path_1607" data-name="Path 1607" d="M397,412.55a7.149,7.149,0,0,1,0,1.5c-.041.929-.116,2.219-.225,3.68v.171h-.171l-.84-.034-2.253-.116h-.164v-.157c0-1.106,0-2.048.048-2.731a4.2,4.2,0,0,1,.089-1.052,3.89,3.89,0,0,1,.109,1.052c.034.683.061,1.6.082,2.731l-.157-.164,2.26.089.84.041-.184.157c.116-1.461.239-2.731.341-3.674A6.466,6.466,0,0,1,397,412.55Z" transform="translate(-314.034 -323.828)" fill="#263238"/>
      <path id="Path_1608" data-name="Path 1608" d="M416.5,414.755a34.357,34.357,0,0,1-6.89-.84,16.231,16.231,0,0,1,3.469.246A17.379,17.379,0,0,1,416.5,414.755Z" transform="translate(-319.191 -324.257)" fill="#263238"/>
      <path id="Path_1609" data-name="Path 1609" d="M382.157,415.672a25.126,25.126,0,0,1-5.907-.048,12.459,12.459,0,0,1,2.957-.157A12.113,12.113,0,0,1,382.157,415.672Z" transform="translate(-308.611 -324.744)" fill="#263238"/>
      <path id="Path_1610" data-name="Path 1610" d="M410.677,386.314,398.925,388.9s-3.476-2.69-4.971-2.772-6.951,0-6.951,0-5.463,4.186-5.463,5.217a6.384,6.384,0,0,0,.683,2.369s-.813.574-.328,2.7.881,2.274.881,2.274-1.031,1.98.232,2.765a15.767,15.767,0,0,0,3.872,1.366l3.974-.683c-1.448.287,10.236-.4,10.8-2.445h13.909C416.829,393.648,416.856,387.994,410.677,386.314Z" transform="translate(-310.289 -315.434)" fill="#ffbe9d"/>
      <path id="Path_1611" data-name="Path 1611" d="M390.152,392.514a23.649,23.649,0,0,0-3.96,1.174,37.551,37.551,0,0,0-3.592,2.048,3.456,3.456,0,0,1,.895-.854,12.414,12.414,0,0,1,2.554-1.53A8.228,8.228,0,0,1,390.152,392.514Z" transform="translate(-310.625 -317.469)" fill="#eb996e"/>
      <path id="Path_1612" data-name="Path 1612" d="M391.1,397.814c0,.1-2.049.505-4.5,1.134-1.243.307-2.349.628-3.141.9a8.2,8.2,0,0,1-1.284.437,3.872,3.872,0,0,1,1.195-.683,27.7,27.7,0,0,1,7.73-1.8Z" transform="translate(-310.492 -319.15)" fill="#eb996e"/>
      <path id="Path_1613" data-name="Path 1613" d="M390.512,404.351a30.1,30.1,0,0,1-3.558-.061c-1.953-.068-3.523.137-3.544.041a9.211,9.211,0,0,1,3.551-.4A12.634,12.634,0,0,1,390.512,404.351Z" transform="translate(-310.882 -321.085)" fill="#eb996e"/>
      <path id="Path_1614" data-name="Path 1614" d="M411.364,398.68a2.732,2.732,0,0,1,.212,1.086,6.508,6.508,0,0,1-.335,2.677,4.438,4.438,0,0,1-.744,1.311,3.783,3.783,0,0,1-.936.806,2.144,2.144,0,0,1-1.052.382c0-.061.382-.2.915-.594a4.1,4.1,0,0,0,.819-.8,4.671,4.671,0,0,0,.683-1.229,7.963,7.963,0,0,0,.423-2.547,4.64,4.64,0,0,1,.014-1.093Z" transform="translate(-318.843 -319.429)" fill="#eb996e"/>
      <path id="Path_1615" data-name="Path 1615" d="M337.164,402.572s-.765,3.052,3.523,2.861l.471-8.29s-.184-3.045-4.568-2.568l-.86,3.523a4.316,4.316,0,0,1,1.147,1.885A24.978,24.978,0,0,1,337.164,402.572Z" transform="translate(-295.759 -318.111)" fill="#ffbe9d"/>
      <path id="Path_1616" data-name="Path 1616" d="M315.089,378.853,332.1,399.762l4.889,1.652-1.106-5.34L319.281,375.3a2.772,2.772,0,0,0-2.451-1.052h-.061a2.8,2.8,0,0,0-1.68,4.609Z" transform="translate(-288.993 -311.674)" fill="#455a64"/>
      <path id="Path_1617" data-name="Path 1617" d="M315.5,379.633c-.041,0,.041-.348.307-.826a5.2,5.2,0,0,1,3.373-2.424,1.591,1.591,0,0,1,.874-.034,10.556,10.556,0,0,0-2.608,1.181,10.107,10.107,0,0,0-1.946,2.1Z" transform="translate(-289.339 -312.332)" fill="#263238"/>
      <path id="Path_1618" data-name="Path 1618" d="M340.146,409.86a1.149,1.149,0,0,1-.4-.874.785.785,0,0,1,.048-.266l.089-.225a2.643,2.643,0,0,1,1.106-1.441,8.585,8.585,0,0,1,1.045-.683,2.732,2.732,0,0,1,1-.328c.608-.068.956.13.935.164a4.926,4.926,0,0,0-.895.089,2.731,2.731,0,0,0-.874.362,9.539,9.539,0,0,0-.99.683,3.414,3.414,0,0,0-.819.819c-.089.15-.164.307-.239.457l-.1.219a.492.492,0,0,0-.048.171C339.982,409.512,340.208,409.84,340.146,409.86Z" transform="translate(-297.034 -321.759)" fill="#263238"/>
      <path id="Path_1619" data-name="Path 1619" d="M333.808,398.88c-.075.061-3.776-4.432-8.269-10.038s-8.064-10.195-7.989-10.243,3.776,4.432,8.269,10.031S333.883,398.819,333.808,398.88Z" transform="translate(-289.993 -313.06)" fill="#263238"/>
      <path id="Path_1620" data-name="Path 1620" d="M336.568,396.591c-.075.061-3.721-4.309-8.139-9.765s-7.935-9.935-7.859-10,3.721,4.309,8.139,9.771S336.616,396.53,336.568,396.591Z" transform="translate(-290.951 -312.498)" fill="#263238"/>
      <path id="Path_1621" data-name="Path 1621" d="M345.927,410.559a1.509,1.509,0,0,0-1.366.335,1.468,1.468,0,0,0-.43,1.291l2.267.751Z" transform="translate(-298.418 -323.182)" fill="#263238"/>
      <path id="Path_1622" data-name="Path 1622" d="M298.166,388.324l8.781,2.834s3.858-3.243,5.36-3.325l5.08-.253s6.282,4.186,6.282,5.21a6.383,6.383,0,0,1-.683,2.369s1.728.683,1.366,2.137a2.615,2.615,0,0,1-1.953,1.96s1.058,2.854-.2,3.64a15.7,15.7,0,0,1-3.872,1.366s-2.288,1.816-3.79,1.659-9.007-.635-9.874-2.049l-9.123-2.212-6.931-1.734s-2.656-3.455,1.434-7.634A13.063,13.063,0,0,1,298.166,388.324Z" transform="translate(-280.545 -315.908)" fill="#ffbe9d"/>
      <path id="Path_1623" data-name="Path 1623" d="M336.243,393.877a31,31,0,0,0-3.879-.881,29.9,29.9,0,0,0-3.974,0,10.188,10.188,0,0,1,7.853.874Z" transform="translate(-293.431 -317.493)" fill="#eb996e"/>
      <path id="Path_1624" data-name="Path 1624" d="M336.332,398.254c0,.082-1.42-.2-3.162-.451a16.873,16.873,0,0,0-2.24-.178c-.574,0-.895.123-.922.082s.307-.273.908-.335a9.378,9.378,0,0,1,2.3.082A8.751,8.751,0,0,1,336.332,398.254Z" transform="translate(-293.945 -319.003)" fill="#eb996e"/>
      <path id="Path_1625" data-name="Path 1625" d="M335.952,404.348c-.034.068-1.174-.184-2.643-.307s-2.629-.116-2.649-.191a6.26,6.26,0,0,1,2.684-.164A6.018,6.018,0,0,1,335.952,404.348Z" transform="translate(-294.151 -321)" fill="#eb996e"/>
      <path id="Path_1626" data-name="Path 1626" d="M289,399.859a2.1,2.1,0,0,1,.3.048l.86.191,3.264.751,11.608,2.779h.055l.041.061a2.731,2.731,0,0,0,1.3.724,13.242,13.242,0,0,0,1.611.4c1.106.225,2.274.376,3.476.512s2.465.253,3.681.321a4.78,4.78,0,0,0,1.741-.58,12.29,12.29,0,0,0,1.618-1.045h.075a20.888,20.888,0,0,0,2.356-.683,7.987,7.987,0,0,0,1.263-.539,1.181,1.181,0,0,0,.683-.963,5.667,5.667,0,0,0-.355-2.581l-.068-.191.2-.048a2.431,2.431,0,0,0,1.81-1.81,1.366,1.366,0,0,0-.232-1.195,2.54,2.54,0,0,0-1.017-.758l-.171-.075.082-.164a8.141,8.141,0,0,0,.539-1.366,3.451,3.451,0,0,0,.137-.683,1.242,1.242,0,0,0,0-.307.833.833,0,0,0-.143-.259,12.771,12.771,0,0,0-1.994-1.85c-1.407-1.106-2.779-2.048-4.049-2.943h.075l-4.78.212a3.633,3.633,0,0,0-1.8.574q-.7.4-1.366.86c-.819.553-1.434,1.017-1.85,1.332l-.471.355c-.109.082-.164.123-.171.116s.041-.055.143-.143l.451-.389c.4-.335,1-.819,1.81-1.366.41-.287.867-.6,1.366-.9a3.81,3.81,0,0,1,1.878-.621l4.78-.266h.041c1.291.86,2.67,1.816,4.1,2.929a12.769,12.769,0,0,1,2.049,1.905,1.248,1.248,0,0,1,.191.369.682.682,0,0,1,0,.225,1.792,1.792,0,0,1,0,.191,4.635,4.635,0,0,1-.15.744,7.742,7.742,0,0,1-.56,1.407l-.089-.232a2.848,2.848,0,0,1,1.174.874,1.721,1.721,0,0,1,.294,1.475,2.793,2.793,0,0,1-2.083,2.049l.137-.232a6.077,6.077,0,0,1,.382,2.772,1.8,1.8,0,0,1-.28.683,1.543,1.543,0,0,1-.587.492,8.65,8.65,0,0,1-1.318.574,23.151,23.151,0,0,1-2.4.683l.068-.041a10.924,10.924,0,0,1-1.673,1.079,5.032,5.032,0,0,1-1.885.621c-1.318-.068-2.52-.2-3.742-.335s-2.376-.3-3.5-.526a14.047,14.047,0,0,1-1.639-.423,2.9,2.9,0,0,1-1.461-.867l.1.068-11.608-2.9-3.237-.84-.847-.232A1.788,1.788,0,0,1,289,399.859Z" transform="translate(-280.938 -315.841)" fill="#eb996e"/>
    </g>
    <g id="freepik--character-1--inject-19" transform="translate(51.639 250.388)">
      <path id="Path_1627" data-name="Path 1627" d="M169.606,360.694c-2.533-2.137-4.493-3.865-6.719-5.961a19.249,19.249,0,0,0-12.243-5.21l-38.56-1.932h-6.9c-3.913,0-25.005,15.091-27.887,18.232l19.249,17.467,2.4-1.277-.28,5.927,56.15-.13.505-8.262,10.427,6.705,13.657-16.2S173.867,364.258,169.606,360.694Z" transform="translate(-59.778 -281.217)" fill="#295087"/>
      <path id="Path_1628" data-name="Path 1628" d="M189.627,355.07a23.308,23.308,0,0,0-1.891,1.762,12.633,12.633,0,0,0-2.813,5.463,16.614,16.614,0,0,0-.2,6.18c.232,1.584.526,2.533.471,2.554a2.431,2.431,0,0,1-.259-.683,15.7,15.7,0,0,1-.464-1.857,15.4,15.4,0,0,1,.1-6.3,12.052,12.052,0,0,1,2.977-5.538,9.314,9.314,0,0,1,1.461-1.25A2.369,2.369,0,0,1,189.627,355.07Z" transform="translate(-93.681 -283.589)" fill="#263238"/>
      <path id="Path_1629" data-name="Path 1629" d="M146.836,391.255a3.671,3.671,0,0,1-.731-.266c-.464-.184-1.127-.5-1.919-.915a31.1,31.1,0,0,1-10.536-9.1c-.526-.724-.929-1.332-1.181-1.769a3.2,3.2,0,0,1-.369-.683c.055,0,.683.895,1.748,2.3a37.2,37.2,0,0,0,4.78,5.026,36.68,36.68,0,0,0,5.674,4.008C145.852,390.736,146.863,391.2,146.836,391.255Z" transform="translate(-77.158 -291.027)" fill="#263238"/>
      <path id="Path_1630" data-name="Path 1630" d="M112.859,367.882a1,1,0,0,1-.451.171,2.991,2.991,0,0,1-1.325,0,3.414,3.414,0,0,1-1.7-1,3.523,3.523,0,0,1-.895-2.247,3.851,3.851,0,0,1,.683-2.322,4.172,4.172,0,0,1,1.482-1.3,4.056,4.056,0,0,1,1.256-.4,1.238,1.238,0,0,1,.478,0,8.371,8.371,0,0,0-1.612.635,4.165,4.165,0,0,0-1.332,1.256,3.605,3.605,0,0,0-.587,2.124,3.209,3.209,0,0,0,2.308,3.018,4.663,4.663,0,0,0,1.693.068Z" transform="translate(-69.669 -285.394)" fill="#fafafa"/>
      <path id="Path_1631" data-name="Path 1631" d="M127.317,351.73a1.813,1.813,0,0,1-.259.451,3.934,3.934,0,0,1-1.058.935,4.711,4.711,0,0,1-1.98.683,4.336,4.336,0,0,1-4.4-2.233,4.78,4.78,0,0,1-.608-2.048,3.879,3.879,0,0,1,.137-1.407c.1-.321.184-.478.2-.471a7.231,7.231,0,0,0-.1,1.85,4.9,4.9,0,0,0,.683,1.878,4.1,4.1,0,0,0,4.1,2.049,4.78,4.78,0,0,0,1.891-.58A7.447,7.447,0,0,0,127.317,351.73Z" transform="translate(-73.003 -281.233)" fill="#fafafa"/>
      <path id="Path_1632" data-name="Path 1632" d="M126.359,368.187a.758.758,0,0,1,.219,0,2.731,2.731,0,0,1,.587.212,3.619,3.619,0,0,1,1.6,1.618,3.414,3.414,0,0,1,.362,1.564,3.66,3.66,0,0,1-.5,1.775,3.858,3.858,0,0,1-1.454,1.434,3.612,3.612,0,0,1-2.151.423,4.1,4.1,0,0,1-2.049-.8,3.762,3.762,0,0,1-1.215-1.639,4.1,4.1,0,0,1,.191-3.366A2.731,2.731,0,0,1,123.73,368a1.584,1.584,0,0,1,.628,0c.137.034.2.061.2.075a2.664,2.664,0,0,0-.806.061,2.731,2.731,0,0,0-1.584,1.366,3.954,3.954,0,0,0-.109,3.127,3.414,3.414,0,0,0,1.14,1.509,3.762,3.762,0,0,0,1.864.724,3.367,3.367,0,0,0,1.946-.369,3.626,3.626,0,0,0,1.332-1.3,3.237,3.237,0,0,0,.191-3.066,3.66,3.66,0,0,0-1.441-1.611A7.505,7.505,0,0,1,126.359,368.187Z" transform="translate(-73.793 -287.679)" fill="#fafafa"/>
      <path id="Path_1633" data-name="Path 1633" d="M126.515,398.657c0-.034.259.075.724.116a3.353,3.353,0,0,0,1.885-.41,3.223,3.223,0,0,0,1.652-2.219,3.981,3.981,0,0,0-.9-3.278,4.479,4.479,0,0,0-3.1-1.468,4.951,4.951,0,0,0-2.8.615,3.865,3.865,0,0,0-1.407,1.366c-.239.4-.3.683-.328.683a1.529,1.529,0,0,1,.2-.724,3.714,3.714,0,0,1,1.366-1.489,5.107,5.107,0,0,1,2.95-.724,4.78,4.78,0,0,1,3.353,1.57,4.234,4.234,0,0,1,.949,3.564,3.414,3.414,0,0,1-1.857,2.383,3.257,3.257,0,0,1-2.049.321,1.84,1.84,0,0,1-.539-.157A.874.874,0,0,0,126.515,398.657Z" transform="translate(-74.031 -295.022)" fill="#fafafa"/>
      <path id="Path_1634" data-name="Path 1634" d="M145.784,388.662s.171-.13.437-.382a3.032,3.032,0,0,0,.8-1.3,3.107,3.107,0,0,0-.137-2.212,3.831,3.831,0,0,0-1.98-1.857,4.268,4.268,0,0,0-2.731-.191,5,5,0,0,0-2.014,1.072,6.761,6.761,0,0,0-1.3,1.707,1.516,1.516,0,0,1,.178-.567,4.043,4.043,0,0,1,.949-1.325,4.937,4.937,0,0,1,2.1-1.2,4.473,4.473,0,0,1,2.964.177,4.1,4.1,0,0,1,2.137,2.049,3.237,3.237,0,0,1,.075,2.417,2.881,2.881,0,0,1-.949,1.332A1.263,1.263,0,0,1,145.784,388.662Z" transform="translate(-79.302 -292.203)" fill="#fafafa"/>
      <path id="Path_1635" data-name="Path 1635" d="M167.76,386.923a1.32,1.32,0,0,1,.321.1,4.2,4.2,0,0,1,.86.423,5.736,5.736,0,0,1,2.219,2.7,5.312,5.312,0,0,1,.369,2.417,5.634,5.634,0,0,1-.956,2.649,5.818,5.818,0,0,1-2.369,2.014,5.57,5.57,0,0,1-7.668-3.995,4.1,4.1,0,0,1,.792-2.7A20.925,20.925,0,0,1,162.8,388.6a5.654,5.654,0,0,1,2.888-1.96,3.065,3.065,0,0,1,.956-.089.683.683,0,0,1,.328.055,4.944,4.944,0,0,0-1.25.171,5.654,5.654,0,0,0-2.731,1.987c-.458.56-.942,1.215-1.413,1.926a3.8,3.8,0,0,0-.683,2.506,5.251,5.251,0,0,0,7.2,3.708,5.422,5.422,0,0,0,2.24-1.885,5.306,5.306,0,0,0,.935-2.486,5.155,5.155,0,0,0-.307-2.3,5.852,5.852,0,0,0-2.048-2.67C168.191,387.093,167.747,386.957,167.76,386.923Z" transform="translate(-86.174 -293.571)" fill="#fafafa"/>
      <path id="Path_1636" data-name="Path 1636" d="M173.566,368.175h.253a2.478,2.478,0,0,1,.683.15,3.557,3.557,0,0,1,1.946,1.707,3.892,3.892,0,0,1-.225,3.79,4.548,4.548,0,0,1-4.145,2.048,4.186,4.186,0,0,1-2.349-.813,2.964,2.964,0,0,1-1.134-2.049,5.941,5.941,0,0,1,.15-2.083,4.718,4.718,0,0,1,.731-1.659,3,3,0,0,1,2.2-1.331,2.116,2.116,0,0,1,.717.055c.157.048.232.082.225.1a3.5,3.5,0,0,0-.922,0,2.957,2.957,0,0,0-2.014,1.332,5.572,5.572,0,0,0-.758,3.564,2.574,2.574,0,0,0,1.017,1.789,3.9,3.9,0,0,0,2.158.737,4.247,4.247,0,0,0,3.844-1.878,3.646,3.646,0,0,0,.28-3.5,3.524,3.524,0,0,0-1.769-1.693,6.6,6.6,0,0,0-.888-.259Z" transform="translate(-88.723 -287.667)" fill="#fafafa"/>
      <path id="Path_1637" data-name="Path 1637" d="M183.856,357.726a5.162,5.162,0,0,1-1.659.239,6.637,6.637,0,0,1-3.92-1.038,4.452,4.452,0,0,1-1.509-1.7,3.817,3.817,0,0,1-.389-1.816,3.183,3.183,0,0,1,.294-1.215c.137-.266.246-.382.266-.376a5.1,5.1,0,0,0-.307,1.591,3.844,3.844,0,0,0,.43,1.666,4.37,4.37,0,0,0,1.42,1.557,6.931,6.931,0,0,0,3.715,1.079C183.214,357.74,183.849,357.665,183.856,357.726Z" transform="translate(-91.201 -282.558)" fill="#fafafa"/>
      <path id="Path_1638" data-name="Path 1638" d="M194.724,364.324a2.629,2.629,0,0,1,.847,0,4.548,4.548,0,0,1,2.219.683,2.868,2.868,0,0,1,1.045,1.27,3.264,3.264,0,0,1,.171,1.878,4.015,4.015,0,0,1-2.929,2.943,4.1,4.1,0,0,1-2.226,0,3.756,3.756,0,0,1-1.728-1.154,3.414,3.414,0,0,1-.683-3.332,3.3,3.3,0,0,1,1.468-1.789,2.438,2.438,0,0,1,.587-.239c.143-.034.219-.041.225,0s-.294.1-.737.389a3.291,3.291,0,0,0-1.311,1.748,3.175,3.175,0,0,0,.683,3.032,3.414,3.414,0,0,0,1.584,1.038,3.742,3.742,0,0,0,2.048,0,3.694,3.694,0,0,0,2.7-2.663,3.025,3.025,0,0,0-.123-1.7,2.663,2.663,0,0,0-.915-1.174,4.78,4.78,0,0,0-2.089-.765,6.01,6.01,0,0,1-.833-.164Z" transform="translate(-95.924 -286.513)" fill="#fafafa"/>
      <path id="Path_1639" data-name="Path 1639" d="M196.211,392.739a2.962,2.962,0,0,1,.683-.143,9.812,9.812,0,0,0,1.837-.423,3.619,3.619,0,0,0,2.049-1.673,3.291,3.291,0,0,0-.335-3.127,3.9,3.9,0,0,0-2.69-1.762,3.414,3.414,0,0,0-2.533.731,3.605,3.605,0,0,0-1.106,1.461c-.157.41-.184.683-.219.683a1.5,1.5,0,0,1,.089-.683,3.353,3.353,0,0,1,1.072-1.611,3.578,3.578,0,0,1,2.731-.86,4.131,4.131,0,0,1,2.943,1.885,3.578,3.578,0,0,1,.335,3.469,3.762,3.762,0,0,1-2.267,1.769,8.026,8.026,0,0,1-1.9.328,2.691,2.691,0,0,1-.69-.041Z" transform="translate(-96.755 -293.18)" fill="#fafafa"/>
      <path id="Path_1640" data-name="Path 1640" d="M216.486,380.832a1.815,1.815,0,0,1-.649.061,6.194,6.194,0,0,1-1.755-.28,6.616,6.616,0,0,1-2.322-1.284,6.685,6.685,0,0,1-1.864-2.656,6.1,6.1,0,0,1-.362-3.23,4.186,4.186,0,0,1,1.215-2.363,3.346,3.346,0,0,1,1.564-.86,1.468,1.468,0,0,1,.683-.041,5.12,5.12,0,0,1-.615.171,3.571,3.571,0,0,0-1.427.908,4.035,4.035,0,0,0-1.065,2.24,5.927,5.927,0,0,0,.369,3.045,6.617,6.617,0,0,0,1.748,2.54,6.76,6.76,0,0,0,2.178,1.291,10.631,10.631,0,0,0,2.3.458Z" transform="translate(-101.694 -288.374)" fill="#fafafa"/>
      <path id="Path_1641" data-name="Path 1641" d="M92.925,363.77a2.439,2.439,0,0,1,.328.615,9.267,9.267,0,0,1,.58,1.81,9.642,9.642,0,0,1,.191,2.827,8.262,8.262,0,0,1-.983,3.332,7.245,7.245,0,0,1-2.4,2.526,6.705,6.705,0,0,1-2.649,1.017,5.387,5.387,0,0,1-1.912,0,2.186,2.186,0,0,1-.683-.212,8.193,8.193,0,0,0,2.533,0,7.156,7.156,0,0,0,4.78-3.469,9.116,9.116,0,0,0,.86-5.941A22.188,22.188,0,0,0,92.925,363.77Z" transform="translate(-62.347 -286.349)" fill="#fafafa"/>
      <path id="Path_1642" data-name="Path 1642" d="M104.514,383.474a3.918,3.918,0,0,1,.512-.178,5.225,5.225,0,0,0,1.325-.539,1.809,1.809,0,0,0,.935-1.659,2.178,2.178,0,0,0-1.584-1.707,3.845,3.845,0,0,0-2.472.341,4.828,4.828,0,0,0-1.714,1.2,1.912,1.912,0,0,0-.43,1.291,2,2,0,0,0,.1.512c-.027.014-.164-.137-.239-.492a1.932,1.932,0,0,1,.369-1.461,4.657,4.657,0,0,1,1.775-1.366,4,4,0,0,1,2.731-.389,2.451,2.451,0,0,1,1.816,2.014,1.782,1.782,0,0,1-.335,1.2,2.376,2.376,0,0,1-.792.683,4.391,4.391,0,0,1-1.427.464,1.788,1.788,0,0,1-.574.082Z" transform="translate(-67.271 -291.16)" fill="#fafafa"/>
      <g id="Group_388" data-name="Group 388" transform="translate(38.916 97.149)" opacity="0.3">
        <path id="Path_1643" data-name="Path 1643" d="M163.182,400.021a3.715,3.715,0,0,0-2.206-.635c-6.227-.369-12.469.485-18.71.621s-12.714-.5-18.143-3.592c-1.707-.97-3.353-2.049-5.108-2.909a10.131,10.131,0,0,0-9.949,1.086l-.437,7.641c17.392.137,36.115-.075,53.507.055a2.048,2.048,0,0,0,1.188-.246A1.352,1.352,0,0,0,163.182,400.021Z" transform="translate(-108.63 -392.66)"/>
      </g>
      <path id="Path_1644" data-name="Path 1644" d="M115.127,370.859c-.061,0,.137-.888.321-2.315a29.1,29.1,0,0,0-.683-11.144,18.913,18.913,0,0,1-.6-2.26,1.96,1.96,0,0,1,.28.567c.157.376.355.929.567,1.625a24.9,24.9,0,0,1,.99,5.586,24.349,24.349,0,0,1-.307,5.668c-.123.683-.253,1.284-.362,1.68a2.253,2.253,0,0,1-.2.594Z" transform="translate(-71.466 -283.612)" fill="#263238"/>
      <path id="Path_1645" data-name="Path 1645" d="M101.864,414.206,79.33,436.316h52.08s2.731-4.411,7.784-4.042,27.716,6.651,34.545,5.531l-5.975-24.521s-18.041-5.231-28.31-3.243a14.818,14.818,0,0,0-7.511,3.954h0Z" transform="translate(-60.422 -300.881)" fill="#fafafa"/>
      <path id="Path_1646" data-name="Path 1646" d="M101.708,414.157h1.256l3.667-.048,13.862-.143,9.826-.089h1.516c-.164.068,0,0-.068,0l.13-.116.246-.239.526-.458a15.023,15.023,0,0,1,2.349-1.6,14.578,14.578,0,0,1,5.681-1.775,35.3,35.3,0,0,1,6.33-.184,66.649,66.649,0,0,1,6.644.683,114.468,114.468,0,0,1,14,2.957h.089v.1c1.864,7.614,3.885,15.89,5.988,24.507l.048.2h-.191a16.379,16.379,0,0,1-2.165.123h-1.086l-1.086-.082c-.724-.048-1.454-.13-2.178-.225s-1.461-.178-2.192-.294c-2.923-.444-5.872-1-8.836-1.611-4.5-.915-8.918-1.939-13.268-2.806-2.165-.382-4.363-.963-6.432-.341a9.225,9.225,0,0,0-4.964,3.687l-.061.082h-.089l-52.107-.048H78.84l.219-.212L95.638,420.05l4.493-4.363,1.174-1.12c.259-.253.4-.376.4-.376l-.389.41-1.161,1.154L95.7,420.173l-16.47,16.183-.082-.212,52.107-.048-.143.082a9.56,9.56,0,0,1,5.2-3.824,8.194,8.194,0,0,1,3.312-.212c1.106.123,2.192.341,3.284.546,4.363.867,8.774,1.891,13.274,2.806,2.957.608,5.907,1.168,8.815,1.6.724.123,1.454.219,2.178.3s1.448.178,2.165.219l1.079.089h1.065a15.422,15.422,0,0,0,2.11-.109l-.143.212c-2.1-8.617-4.1-16.893-5.961-24.514l.109.116a114.812,114.812,0,0,0-13.95-2.97c-2.253-.328-4.459-.574-6.617-.683a35.4,35.4,0,0,0-6.282.171,14.34,14.34,0,0,0-5.592,1.728,14.906,14.906,0,0,0-2.308,1.57c-.184.143-.348.3-.519.451l-.253.232-.123.116c-.041,0,.075,0-.1.048h-1.5l-9.806.048-13.855.048h-4.671Z" transform="translate(-60.266 -300.832)" fill="#263238"/>
      <path id="Path_1647" data-name="Path 1647" d="M155.582,438.318c-.1,0,0-5.026.157-11.212s.417-11.212.519-11.205,0,5.019-.164,11.212S155.678,438.318,155.582,438.318Z" transform="translate(-84.594 -302.882)" fill="#263238"/>
      <path id="Path_1648" data-name="Path 1648" d="M131.26,441.723a1.467,1.467,0,0,1-.355,0l-1.024.034-3.769.109-12.387.034-12.387-.055-3.756-.048H96.565a2.3,2.3,0,0,1-.355,0,6.925,6.925,0,0,1,1.366-.1c.888,0,2.171-.048,3.756-.068,3.168-.041,7.552-.055,12.387-.055s9.218,0,12.393.075l3.749.061,1.024.041a1.127,1.127,0,0,1,.376-.034Z" transform="translate(-65.775 -311.027)" fill="#263238"/>
      <path id="Path_1649" data-name="Path 1649" d="M133.045,437.018a1.3,1.3,0,0,1-.335.034h-4.52l-11.717-.123-11.724-.2-3.551-.1-.963-.034a2.439,2.439,0,0,1-.335,0,6.205,6.205,0,0,1,1.3-.075h3.551c3,0,7.142.041,11.724.109s8.713.15,11.711.232l3.551.109.97.048a1.1,1.1,0,0,1,.341-.007Z" transform="translate(-66.946 -309.422)" fill="#263238"/>
      <path id="Path_1650" data-name="Path 1650" d="M194.8,439.669a1.406,1.406,0,0,1-.362,0H193.4c-.9,0-2.206-.061-3.81-.191a64.8,64.8,0,0,1-12.366-2.26c-2.369-.683-4.561-1.5-6.589-2.1a20.4,20.4,0,0,0-5.5-.963,12.011,12.011,0,0,0-3.742.5c-.854.273-1.3.505-1.311.478s.1-.082.314-.191a7.653,7.653,0,0,1,.956-.417,11.225,11.225,0,0,1,3.769-.608,20.046,20.046,0,0,1,5.592.9c2.049.587,4.247,1.413,6.6,2.049a71.071,71.071,0,0,0,12.291,2.356c1.591.157,2.888.239,3.79.294l1.031.061A1.369,1.369,0,0,1,194.8,439.669Z" transform="translate(-86.032 -308.597)" fill="#263238"/>
      <path id="Path_1651" data-name="Path 1651" d="M194.882,433.416a1.063,1.063,0,0,1-.362,0h-1.031c-.9,0-2.206-.055-3.81-.184a64.71,64.71,0,0,1-12.366-2.26c-2.369-.683-4.561-1.5-6.589-2.1a20.7,20.7,0,0,0-5.51-.97,11.93,11.93,0,0,0-3.721.492c-.854.266-1.3.505-1.311.471a1.551,1.551,0,0,1,.307-.184,7.558,7.558,0,0,1,.956-.416,11.131,11.131,0,0,1,3.776-.608,19.631,19.631,0,0,1,5.558.915c2.049.587,4.24,1.414,6.6,2.049a71.746,71.746,0,0,0,12.291,2.349c1.6.164,2.9.246,3.79.3l1.038.061a1.642,1.642,0,0,1,.389.082Z" transform="translate(-86.064 -306.612)" fill="#263238"/>
      <path id="Path_1652" data-name="Path 1652" d="M194.881,427.173a1.363,1.363,0,0,1-.362,0h-1.038c-.9,0-2.2-.055-3.8-.191a64.528,64.528,0,0,1-12.366-2.253c-2.376-.683-4.568-1.5-6.6-2.1a20.129,20.129,0,0,0-5.5-.97,11.771,11.771,0,0,0-3.728.492c-.854.266-1.291.5-1.3.471s.1-.075.307-.191a8.7,8.7,0,0,1,.956-.417,11.4,11.4,0,0,1,3.769-.608,19.912,19.912,0,0,1,5.6.908c2.048.587,4.24,1.407,6.6,2.048a71.743,71.743,0,0,0,12.291,2.349c1.6.164,2.9.239,3.79.3l1.031.061a1.255,1.255,0,0,1,.362.1Z" transform="translate(-86.064 -304.63)" fill="#263238"/>
      <path id="Path_1653" data-name="Path 1653" d="M186.8,418.266a1.276,1.276,0,0,1-.259.075,6.955,6.955,0,0,1-.758.13,16.986,16.986,0,0,1-2.813.123,47.555,47.555,0,0,1-9.15-1.516,48.169,48.169,0,0,0-5.005-.86,18.662,18.662,0,0,0-7.866.662,1.287,1.287,0,0,1,.239-.123c.164-.068.4-.178.683-.273a13.655,13.655,0,0,1,2.731-.594,20.361,20.361,0,0,1,4.186,0,42.828,42.828,0,0,1,5.046.833,58.461,58.461,0,0,0,9.082,1.611,21.728,21.728,0,0,0,2.793,0,8.688,8.688,0,0,1,1.093-.068Z" transform="translate(-86.308 -302.845)" fill="#263238"/>
      <path id="Path_1654" data-name="Path 1654" d="M225.7,395.79c-1.919-2.014-16.313-13.93-16.313-13.93l-11.055,13.124,6.787,3.646c-.546.171-10.126,4.309-12.974,5.565-1.557-1.113-4.937-3.414-6.187-3.585-1.652-.2-6.323,0-6.323,0s-2.233,2.622-1.748,2.916c0,0-2.916,2.137-2.526,3.5l.389,1.366a1.2,1.2,0,0,0-1.461,1.318c0,1.6-.191,2.274.683,2.731a3.312,3.312,0,0,0,1.072,2.82,21.789,21.789,0,0,0,2.622,2.24,1.413,1.413,0,0,0,.58,2.233A14.442,14.442,0,0,0,184.5,421.1c.792,0,7.306-2.185,9.71-3,0,0,30.55-8.488,32.517-11.533C228.413,403.95,228.413,398.63,225.7,395.79Z" transform="translate(-90.534 -292.086)" fill="#ffbe9d"/>
      <path id="Path_1655" data-name="Path 1655" d="M228.458,400.587a14.777,14.777,0,0,0-4.4-.266,18.4,18.4,0,0,0-4.63,1.195,51.953,51.953,0,0,0-5.34,2.52,102.113,102.113,0,0,1-9.71,4.657c-1.291.505-2.349.86-3.086,1.072-.369.116-.683.184-.86.232a.934.934,0,0,1-.307.055,8.444,8.444,0,0,1,1.12-.417c.731-.253,1.769-.683,3.039-1.181,2.54-1.045,5.927-2.772,9.642-4.732a48.539,48.539,0,0,1,5.388-2.513,17.8,17.8,0,0,1,4.725-1.14,10.965,10.965,0,0,1,3.271.184,6.144,6.144,0,0,1,.86.225.834.834,0,0,1,.294.109Z" transform="translate(-98.732 -297.846)" fill="#eb996e"/>
      <path id="Path_1656" data-name="Path 1656" d="M186.583,412.761c0,.048-.389-.164-1.024-.348a6.76,6.76,0,0,0-2.54-.184,16.859,16.859,0,0,0-2.547.533,3.682,3.682,0,0,1-1.072.232,3.113,3.113,0,0,1,1-.471,10.734,10.734,0,0,1,2.581-.642,5.831,5.831,0,0,1,2.663.294C186.29,412.426,186.638,412.727,186.583,412.761Z" transform="translate(-92.16 -301.594)" fill="#eb996e"/>
      <path id="Path_1657" data-name="Path 1657" d="M181.887,420.763a8.071,8.071,0,0,1-5.237-.164c0-.1,1.181.13,2.615.164A25.537,25.537,0,0,1,181.887,420.763Z" transform="translate(-91.288 -304.365)" fill="#eb996e"/>
      <path id="Path_1658" data-name="Path 1658" d="M182.042,427.051a7.593,7.593,0,0,1-6.992-.621,18.994,18.994,0,0,0,3.455.813,19.563,19.563,0,0,0,3.537-.191Z" transform="translate(-90.78 -306.222)" fill="#eb996e"/>
      <path id="Path_1659" data-name="Path 1659" d="M186.393,432.9a5.231,5.231,0,0,1-2.731.956,5.333,5.333,0,0,1-2.882-.287c0-.109,1.291.13,2.834-.068S186.338,432.809,186.393,432.9Z" transform="translate(-92.598 -308.272)" fill="#eb996e"/>
      <path id="Path_1660" data-name="Path 1660" d="M109.836,393.807l17.522,24.254,5.306,2.137-.881-6-17.071-24.077a3.066,3.066,0,0,0-2.649-1.318h-.075a3.107,3.107,0,0,0-2.151,5Z" transform="translate(-69.89 -294.289)" fill="#455a64"/>
      <path id="Path_1661" data-name="Path 1661" d="M110.226,394.725a1.973,1.973,0,0,1,.4-.881,5.866,5.866,0,0,1,1.687-1.639,5.961,5.961,0,0,1,2.2-.833,1.974,1.974,0,0,1,.97,0,10.85,10.85,0,0,0-2.977,1.127,10.482,10.482,0,0,0-2.281,2.226Z" transform="translate(-70.218 -295.084)" fill="#263238"/>
      <path id="Path_1662" data-name="Path 1662" d="M135.628,429.777a.637.637,0,0,1-.184-.225,1.5,1.5,0,0,1-.184-.772.792.792,0,0,1,.068-.287l.109-.246a4.634,4.634,0,0,1,.28-.546,3.722,3.722,0,0,1,1.038-.97,11.177,11.177,0,0,1,1.195-.683,3.162,3.162,0,0,1,1.12-.3c.683-.041,1.045.2,1.024.232a7.464,7.464,0,0,0-1,0,3.265,3.265,0,0,0-1,.341c-.355.2-.758.43-1.147.683a3.989,3.989,0,0,0-.963.86c-.109.164-.2.335-.287.492l-.13.239a.641.641,0,0,0-.068.191A4.683,4.683,0,0,0,135.628,429.777Z" transform="translate(-78.16 -306.004)" fill="#263238"/>
      <path id="Path_1663" data-name="Path 1663" d="M129.394,417.077c-.082.061-3.885-5.162-8.5-11.649s-8.3-11.806-8.194-11.868,3.885,5.162,8.5,11.656S129.476,417.022,129.394,417.077Z" transform="translate(-71.004 -295.797)" fill="#263238"/>
      <path id="Path_1664" data-name="Path 1664" d="M132.549,414.736c-.082.055-3.831-5.033-8.378-11.356s-8.194-11.506-8.092-11.56,3.831,5.026,8.378,11.349S132.624,414.674,132.549,414.736Z" transform="translate(-72.076 -295.245)" fill="#263238"/>
      <path id="Path_1665" data-name="Path 1665" d="M142.032,430.848a1.693,1.693,0,0,0-1.516.287,1.652,1.652,0,0,0-.56,1.4l2.465.976Z" transform="translate(-79.648 -307.602)" fill="#263238"/>
      <path id="Path_1666" data-name="Path 1666" d="M109.134,404.6c1.611-.976,0-4.486,0-4.486s-7.8-4.589-8.945-4.828a78.956,78.956,0,0,0-8.672.724l-12.632-5.278,4.78-3.073L69.926,374.88s-12.291,9.013-15.978,12.694c-2.772,2.779-2.274,8.242-2.274,8.242,1.864,4.923,30.728,11.608,32.776,12.066L95.143,414.2s4.568.6,6.473.84,2.185-2.431,2.185-2.431a2.9,2.9,0,0,0,3.319-3.032,2.349,2.349,0,0,0,3.332-1.1C111.606,406.174,109.134,404.6,109.134,404.6Z" transform="translate(-51.639 -289.872)" fill="#ffbe9d"/>
      <path id="Path_1667" data-name="Path 1667" d="M83.72,396c-.048.055-.758-.683-2.089-1.584A17.328,17.328,0,0,0,79.179,393a19.438,19.438,0,0,0-3.25-1.161,19.059,19.059,0,0,0-3.414-.512,17.6,17.6,0,0,0-2.827.082c-1.6.178-2.567.478-2.588.417a2.314,2.314,0,0,1,.683-.253,7.043,7.043,0,0,1,.806-.212c.321-.061.683-.157,1.086-.2a16.047,16.047,0,0,1,2.82-.164,17.855,17.855,0,0,1,3.489.492,18.076,18.076,0,0,1,3.339,1.222,15.7,15.7,0,0,1,2.458,1.5c.335.225.608.485.86.683a6.489,6.489,0,0,1,.608.567,3.06,3.06,0,0,1,.471.539Z" transform="translate(-56.543 -294.982)" fill="#eb996e"/>
      <path id="Path_1668" data-name="Path 1668" d="M131.143,424.57a21.427,21.427,0,0,0-2.212-1.543,21.683,21.683,0,0,0-2.54-.929,5.415,5.415,0,0,1,4.78,2.472Z" transform="translate(-75.347 -304.846)" fill="#eb996e"/>
      <path id="Path_1669" data-name="Path 1669" d="M133.967,418.437a31.128,31.128,0,0,0-3.3-1.748,33.812,33.812,0,0,0-3.6-.99,9.437,9.437,0,0,1,6.9,2.731Z" transform="translate(-75.563 -302.817)" fill="#eb996e"/>
      <path id="Path_1670" data-name="Path 1670" d="M126.18,428.65c-.068.082-.9-.615-2.049-1.222s-2.212-.915-2.192-1.017a6.391,6.391,0,0,1,4.268,2.24Z" transform="translate(-73.936 -306.216)" fill="#eb996e"/>
      <path id="Path_1671" data-name="Path 1671" d="M173.2,299.521c.143-2.636,2.41-4.937,2.083-7.552s-3.039-4.165-4.5-6.357c-1.769-2.663-1.6-6.1-2.13-9.252a20.048,20.048,0,0,0-5.21-10.29,14.149,14.149,0,0,1,1.366-1.133c1.427-1.065,2.991-2.144,3.633-3.8a5.19,5.19,0,0,0-.751-4.78,6.262,6.262,0,0,0-11.28,4.684,19.736,19.736,0,0,0-4.1-1.291,20.985,20.985,0,0,0-3.332-2.376,9.027,9.027,0,0,0-10.6,1.789c-.731,3.045-1.536,6.084-2.288,9.136l-26.59,17.337c-2.636-.976-5.647.526-7.416,2.731s-2.629,4.944-3.721,7.511-2.629,5.217-5.121,6.514c-1.366.717-3.2,1.222-3.558,2.731a2.731,2.731,0,0,0,1.229,2.677,7.922,7.922,0,0,0,2.916,1.058l10.482,2.308a14.79,14.79,0,0,1,4.739-2.95,2.814,2.814,0,0,0,.772,3.571,8.1,8.1,0,0,0,3.694,1.448l23.025,4.9c4.671.99,9.785,1.926,14.012-.294,1.81-.949,3.312-2.431,5.169-3.271,2.287-1.031,4.889-1.017,7.388-.922s5.073.253,7.45-.533,4.548-2.779,4.725-5.278C175.476,304.963,173.066,302.389,173.2,299.521Z" transform="translate(-63.695 -251.441)" fill="#263238"/>
      <path id="Path_1672" data-name="Path 1672" d="M193.962,269.675a23.149,23.149,0,0,0-2.929-2.957,21.894,21.894,0,0,0-3.612-2.048,8.194,8.194,0,0,1,3.831,1.782A8.31,8.31,0,0,1,193.962,269.675Z" transform="translate(-94.704 -254.918)" fill="#295087"/>
      <path id="Path_1673" data-name="Path 1673" d="M197.119,254.43a.641.641,0,0,1,.382.2,2.171,2.171,0,0,1,.683.97,3.524,3.524,0,0,1,.143,1.748,10.3,10.3,0,0,1-.539,2.049,11.663,11.663,0,0,1-1.905,3.312,4.274,4.274,0,0,1-1.134,1.1,18.034,18.034,0,0,0,2.731-4.534,6.006,6.006,0,0,0,.492-3.585,2.95,2.95,0,0,0-.854-1.256Z" transform="translate(-97.029 -251.67)" fill="#455a64"/>
      <path id="Path_1674" data-name="Path 1674" d="M171.145,284.044v-.328a20.456,20.456,0,0,0-20.97-19.8c-.539,0-1.1.048-1.659.089a26.3,26.3,0,0,0-2.629.335,20.326,20.326,0,0,0-16.388,20.4c.1,8.023.314,18.71.765,21.851a43.051,43.051,0,0,1,.642,7.156l.294,12.291a13.534,13.534,0,0,0,13.206,13.213h0a13.534,13.534,0,0,0,13.862-13.513v-6.323c8.351-1.079,12.2-9.136,12.749-18.771A129.12,129.12,0,0,0,171.145,284.044Z" transform="translate(-76.333 -254.674)" fill="#ffbe9d"/>
      <path id="Path_1675" data-name="Path 1675" d="M126.192,304.328c-.225-.1-8.972-2.731-8.754,6.227s9.157,6.876,9.171,6.624S126.192,304.328,126.192,304.328Z" transform="translate(-72.507 -267.358)" fill="#ffbe9d"/>
      <path id="Path_1676" data-name="Path 1676" d="M124.846,315.211c-.041,0-.15.116-.417.239a1.55,1.55,0,0,1-1.161.055c-.956-.321-1.789-1.8-1.871-3.414a5.176,5.176,0,0,1,.382-2.247,1.8,1.8,0,0,1,1.147-1.222.8.8,0,0,1,.929.4c.123.246.075.43.123.444s.184-.157.1-.526a1.01,1.01,0,0,0-.362-.553,1.215,1.215,0,0,0-.867-.2,2.206,2.206,0,0,0-1.6,1.427,5.326,5.326,0,0,0-.478,2.506c.1,1.8,1.065,3.469,2.369,3.81a1.659,1.659,0,0,0,1.42-.273C124.839,315.429,124.88,315.224,124.846,315.211Z" transform="translate(-73.564 -268.715)" fill="#eb996e"/>
      <path id="Path_1677" data-name="Path 1677" d="M180.423,299.815c-.246.253-1.714-.854-3.81-.86s-3.64,1.024-3.865.765c-.109-.116.137-.567.813-1.052a5.272,5.272,0,0,1,3.1-.929,5.094,5.094,0,0,1,3.025,1C180.355,299.242,180.574,299.7,180.423,299.815Z" transform="translate(-90.043 -265.406)" fill="#263238"/>
      <path id="Path_1678" data-name="Path 1678" d="M152.613,300.786c-.246.253-1.714-.854-3.81-.86s-3.64,1.024-3.865.765c-.109-.109.137-.567.813-1.052a5.374,5.374,0,0,1,3.1-.929,5.142,5.142,0,0,1,3.025,1C152.518,300.212,152.736,300.676,152.613,300.786Z" transform="translate(-81.222 -265.714)" fill="#263238"/>
      <path id="Path_1679" data-name="Path 1679" d="M150.418,292.9c-.171.533-1.926.546-3.858,1.038s-3.469,1.209-3.933.826c-.212-.191-.068-.683.5-1.25a6.091,6.091,0,0,1,2.827-1.475,6.766,6.766,0,0,1,3.3,0C150.077,292.281,150.493,292.629,150.418,292.9Z" transform="translate(-80.468 -263.532)" fill="#263238"/>
      <path id="Path_1680" data-name="Path 1680" d="M179.842,290.964c-.464.615-2.479,1.017-4.5.888s-3.291-.731-2.827-1.366,2.479-1.017,4.5-.888S180.327,290.343,179.842,290.964Z" transform="translate(-89.946 -262.816)" fill="#263238"/>
      <path id="Path_1681" data-name="Path 1681" d="M160.3,323.655c.034.123-.253.348-.806.423a2.964,2.964,0,0,1-3.2-2.431c-.075-.553.061-.888.191-.888.266,0,.485,1.181,1.523,1.96S160.237,323.416,160.3,323.655Z" transform="translate(-84.824 -272.707)" fill="#263238"/>
      <path id="Path_1682" data-name="Path 1682" d="M165.424,344.42s-10.721.171-13.254-1.68c0,0,1.9,5.2,13.254,4.643Z" transform="translate(-83.524 -279.679)" fill="#eb996e"/>
      <path id="Path_1683" data-name="Path 1683" d="M165.139,307.909c.13-.034.376.423.683,1.2.15.382.314.854.478,1.366q.109.4.246.819a3.742,3.742,0,0,1,.212,1,1.584,1.584,0,0,1-.417,1.2,1.8,1.8,0,0,1-1.017.505,2.1,2.1,0,0,1-.956-.082,2.471,2.471,0,0,1-.683-.369c-.683-.574-.935-1.052-.86-1.134s.539.219,1.215.546a1.618,1.618,0,0,0,1.12.157.915.915,0,0,0,.485-.273.683.683,0,0,0,.143-.505,3.536,3.536,0,0,0-.157-.785c-.068-.287-.13-.567-.2-.84-.116-.533-.2-1.024-.273-1.434C165.023,308.469,164.989,307.971,165.139,307.909Z" transform="translate(-86.899 -268.631)" fill="#263238"/>
      <path id="Path_1684" data-name="Path 1684" d="M145.438,315c-.082,0-.116-.225-.068-.471s.157-.417.246-.4.123.225.068.471S145.527,315.017,145.438,315Z" transform="translate(-81.36 -270.604)" fill="#eb996e"/>
      <path id="Path_1685" data-name="Path 1685" d="M150.88,314.017a.271.271,0,0,1-.239-.2c-.048-.143,0-.287.068-.314s.191.061.239.2A.277.277,0,0,1,150.88,314.017Z" transform="translate(-83.033 -270.403)" fill="#eb996e"/>
      <path id="Path_1686" data-name="Path 1686" d="M148.092,317.167c-.089,0-.184-.178-.2-.417s0-.444.116-.451.178.178.2.417S148.18,317.16,148.092,317.167Z" transform="translate(-82.163 -271.293)" fill="#eb996e"/>
      <path id="Path_1687" data-name="Path 1687" d="M141.239,316.533c-.082,0-.1-.246,0-.485s.2-.417.287-.389.1.246,0,.485S141.328,316.574,141.239,316.533Z" transform="translate(-80.036 -271.089)" fill="#eb996e"/>
      <path id="Path_1688" data-name="Path 1688" d="M177.645,313.768c-.089,0-.178-.157-.2-.369s0-.4.116-.41.178.157.2.369S177.734,313.762,177.645,313.768Z" transform="translate(-91.538 -270.243)" fill="#eb996e"/>
      <path id="Path_1689" data-name="Path 1689" d="M182.794,313.6c-.089,0-.164-.191-.164-.43s.075-.437.164-.437.164.191.164.437S182.883,313.6,182.794,313.6Z" transform="translate(-93.185 -270.161)" fill="#eb996e"/>
      <path id="Path_1690" data-name="Path 1690" d="M186.987,313.337c-.089,0-.2-.164-.246-.4s0-.451.075-.464.191.164.246.4S187.076,313.323,186.987,313.337Z" transform="translate(-94.482 -270.078)" fill="#eb996e"/>
      <path id="Path_1691" data-name="Path 1691" d="M180.417,317.936c-.089,0-.1-.239,0-.478s.2-.417.287-.389.1.239,0,.478S180.5,317.963,180.417,317.936Z" transform="translate(-92.46 -271.536)" fill="#eb996e"/>
      <path id="Path_1692" data-name="Path 1692" d="M185.17,317.386c-.089,0-.178-.137-.2-.328s0-.362.116-.369.184.137.2.328S185.259,317.373,185.17,317.386Z" transform="translate(-93.922 -271.416)" fill="#eb996e"/>
      <path id="Path_1693" data-name="Path 1693" d="M190.926,312.232a6.146,6.146,0,0,0,2.13-1.366,6.972,6.972,0,0,0,1.571-2.527,8.638,8.638,0,0,0,.5-3.9,15.022,15.022,0,0,0-1.318-4.616c-.683-1.6-1.632-3.216-2.547-4.971a20.813,20.813,0,0,1-2.178-5.8,11.143,11.143,0,0,1-.089-3.3c.137-1.113.382-2.219.615-3.325a17.8,17.8,0,0,0,.451-3.3,7.122,7.122,0,0,0-.587-3.107,10.878,10.878,0,0,0-4.056-4.425c-1.625-1.079-3.312-1.912-4.821-2.806s-2.9-1.741-4.152-2.554c-2.5-1.632-4.445-3.059-5.763-4.1-.683-.505-1.161-.915-1.5-1.195l-.376-.321c-.089-.075-.13-.116-.123-.116s.055,0,.143.089l.4.294,1.543,1.14c1.366.983,3.3,2.383,5.811,3.981,1.25.8,2.643,1.646,4.165,2.513s3.2,1.7,4.855,2.793a11.15,11.15,0,0,1,4.193,4.555,7.553,7.553,0,0,1,.621,3.257,18.142,18.142,0,0,1-.457,3.366c-.232,1.113-.478,2.206-.608,3.291a10.686,10.686,0,0,0,.075,3.2,20.486,20.486,0,0,0,2.13,5.715c.895,1.748,1.83,3.38,2.52,5a15.139,15.139,0,0,1,1.3,4.718,8.877,8.877,0,0,1-.56,3.995,7.163,7.163,0,0,1-1.659,2.554,5.653,5.653,0,0,1-1.6,1.079,4,4,0,0,1-.471.164Z" transform="translate(-88.76 -253.595)" fill="#455a64"/>
      <path id="Path_1694" data-name="Path 1694" d="M160.347,274.589a25.8,25.8,0,0,0-10.775-13.937l-6.309-4.186a14.128,14.128,0,0,0-24.439,2.13c-.478,1.038-.847,2.158-1.332,3.2a9.246,9.246,0,0,0-1.318-6.583,7.236,7.236,0,0,0-7.737-3.018,6.876,6.876,0,0,0-4.664,6.617,7.955,7.955,0,0,0,4.643,6.828,8.538,8.538,0,0,0,1.775.567,13.07,13.07,0,0,0-4.158,1.127,6.862,6.862,0,0,0-3.544,6.828c.2,1.475.867,3.039.219,4.377-.505,1.031-1.639,1.55-2.567,2.226a8.037,8.037,0,0,0-3.086,7.689,24.022,24.022,0,0,0-3.578,6.391c-2.192,5.75,2.124,6.016,3.469,7.265l7.914-8.194a9.99,9.99,0,0,1,3.271-.683,40.047,40.047,0,0,1,4.937.15,16.5,16.5,0,0,0,5.722-.478,7.587,7.587,0,0,0,2.765-1.509,8.385,8.385,0,0,0,1.967-2.636,25.264,25.264,0,0,0,1.8-6.555,16,16,0,0,1,2.24-6.207,6.774,6.774,0,0,1,2.3-2.049,9.94,9.94,0,0,1,2.847-.929c1.946-.362,3.872-.444,5.633-.9a7.511,7.511,0,0,0,4.22-2.656,9.833,9.833,0,0,0,1.666-3.776,19.608,19.608,0,0,0,.423-3.08c0-.362.041-.683.048-.976a41.967,41.967,0,0,0,14.374,13.657c.437.253,1.127.43,1.366,0A.949.949,0,0,0,160.347,274.589Zm-15.924-12a20.893,20.893,0,0,1-.505,3.025,9.491,9.491,0,0,1-1.673,3.626,7.1,7.1,0,0,1-4.042,2.472c-1.707.43-3.619.5-5.613.847a10.283,10.283,0,0,0-2.991.97,7.231,7.231,0,0,0-2.472,2.171,16.328,16.328,0,0,0-2.335,6.4,24.965,24.965,0,0,1-1.748,6.439,7.907,7.907,0,0,1-1.837,2.486,7.143,7.143,0,0,1-2.595,1.434,16.251,16.251,0,0,1-5.558.5,41.208,41.208,0,0,0-4.978-.089,10.712,10.712,0,0,0-2.731.533l.512-.41a15.4,15.4,0,0,1,10.2-3.134,4.029,4.029,0,0,0,2.356-.683h0c2.731-.744,4.671-4.3,5.763-7.136.935-2.431.772-5.333,2.335-7.4a8.041,8.041,0,0,1,4.78-2.649c1.789-.4,3.694-.533,5.463-1.113a11.608,11.608,0,0,0,7.511-8.317,5.1,5.1,0,0,0,.13-1.366c.041.061.089.123.123.184C144.5,261.731,144.464,262.141,144.423,262.585Z" transform="translate(-64.715 -250.388)" fill="#263238"/>
      <path id="Path_1695" data-name="Path 1695" d="M97.767,304.406a1.42,1.42,0,0,1-.123-.15c-.075-.1-.2-.253-.328-.464a9.649,9.649,0,0,1-1-1.953,11.151,11.151,0,0,1-.683-3.414,10.284,10.284,0,0,1,.847-4.514,10.871,10.871,0,0,1,3.448-4.35,14.665,14.665,0,0,1,5.913-2.376c2.178-.478,4.555-.9,6.535-2.281a7.751,7.751,0,0,0,2.356-2.731,18.437,18.437,0,0,0,1.366-3.523c.758-2.451,1.284-5.005,2.731-7.067a7.552,7.552,0,0,1,2.731-2.41,10.726,10.726,0,0,1,3.339-.977c2.247-.3,4.384-.225,6.35-.5a15.159,15.159,0,0,0,5.2-1.687,15.849,15.849,0,0,0,6.9-7.218c.1-.2.178-.376.246-.512a1.82,1.82,0,0,1,.089-.171,11.909,11.909,0,0,1-1.284,2.656,16.2,16.2,0,0,1-5.831,5.463,15.513,15.513,0,0,1-5.278,1.755c-1.994.287-4.145.225-6.344.533a10.243,10.243,0,0,0-3.237.956,7.334,7.334,0,0,0-2.595,2.3c-1.366,1.98-1.905,4.507-2.663,6.972a19.277,19.277,0,0,1-1.42,3.592,8.085,8.085,0,0,1-2.472,2.841c-2.049,1.441-4.5,1.823-6.658,2.322a15.063,15.063,0,0,0-5.818,2.287,10.789,10.789,0,0,0-3.414,4.22,10.243,10.243,0,0,0-.874,4.4,10.877,10.877,0,0,0,.621,3.359A13.7,13.7,0,0,0,97.767,304.406Z" transform="translate(-65.591 -252.837)" fill="#455a64"/>
      <path id="Path_1696" data-name="Path 1696" d="M174.827,305.378a1.8,1.8,0,0,0,1.584,1.946,1.721,1.721,0,0,0,1.973-1.468,1.8,1.8,0,0,0-1.577-1.946,1.728,1.728,0,0,0-1.98,1.468Z" transform="translate(-90.707 -267.357)" fill="#263238"/>
      <path id="Path_1697" data-name="Path 1697" d="M148,305.378a1.8,1.8,0,0,0,1.584,1.946,1.721,1.721,0,0,0,1.973-1.468,1.8,1.8,0,0,0-1.577-1.946,1.728,1.728,0,0,0-1.98,1.468Z" transform="translate(-82.198 -267.357)" fill="#263238"/>
      <path id="Path_1698" data-name="Path 1698" d="M125.727,265a3.687,3.687,0,0,1-.43,1.509,7.559,7.559,0,0,1-2.39,2.936,7.662,7.662,0,0,1-3.517,1.413,3.81,3.81,0,0,1-1.571-.034c0-.061.6-.041,1.53-.219a8.419,8.419,0,0,0,3.346-1.441,8.522,8.522,0,0,0,2.376-2.766C125.516,265.546,125.673,265,125.727,265Z" transform="translate(-72.629 -255.022)" fill="#295087"/>
      <path id="Path_1699" data-name="Path 1699" d="M122.463,264.923a2.046,2.046,0,0,1-.628,0,8.084,8.084,0,0,1-1.659-.4,9.191,9.191,0,0,1-6.146-8.686,7.785,7.785,0,0,1,.171-1.693,1.926,1.926,0,0,1,.184-.6c.068,0-.164.881-.1,2.288a9.444,9.444,0,0,0,6,8.46C121.575,264.779,122.47,264.855,122.463,264.923Z" transform="translate(-71.427 -251.388)" fill="#455a64"/>
      <path id="Path_1700" data-name="Path 1700" d="M153.165,257.534a6.1,6.1,0,0,0-3.687-2.048,8.057,8.057,0,0,0-4.555.594,18.436,18.436,0,0,0-4.78,3.155,55.514,55.514,0,0,1-4.459,3.735,12.291,12.291,0,0,1-4.288,2.048,7.784,7.784,0,0,1-3.209.143,5.093,5.093,0,0,1-.847-.225c-.191-.068-.287-.109-.28-.123s.4.109,1.147.212a8.235,8.235,0,0,0,3.121-.246,12.379,12.379,0,0,0,4.165-2.049c1.441-1.038,2.854-2.39,4.418-3.742a18.328,18.328,0,0,1,4.882-3.189,8.194,8.194,0,0,1,4.718-.533,5.982,5.982,0,0,1,2.9,1.366,3.83,3.83,0,0,1,.594.649C153.124,257.432,153.178,257.521,153.165,257.534Z" transform="translate(-75.56 -251.893)" fill="#455a64"/>
      <path id="Path_1701" data-name="Path 1701" d="M168.05,259.52a6.953,6.953,0,0,1,.273.642,11.711,11.711,0,0,0,.942,1.741,18.785,18.785,0,0,0,5.244,5.039c1.27.881,2.731,1.769,4.24,2.779a24.793,24.793,0,0,1,4.541,3.694,11.608,11.608,0,0,1,3.052,5.674,14.216,14.216,0,0,1-.847,6.869c-.362,1.134-.778,2.226-1.038,3.332a6.617,6.617,0,0,0-.048,3.284,9.067,9.067,0,0,0,1.509,2.834c.628.86,1.3,1.68,1.85,2.554a9.136,9.136,0,0,1,1.366,5.654,12.66,12.66,0,0,1-1.366,4.9,23.147,23.147,0,0,1-4.493,5.818c-.621.608-1.12,1.065-1.461,1.366l-.389.348q-.13.116-.143.1a1.182,1.182,0,0,1,.116-.13l.369-.369,1.407-1.413a24.063,24.063,0,0,0,4.37-5.831,12.558,12.558,0,0,0,1.318-4.814,8.877,8.877,0,0,0-1.366-5.463c-.546-.854-1.215-1.659-1.857-2.533a9.4,9.4,0,0,1-1.564-2.936,6.965,6.965,0,0,1,.041-3.455c.266-1.147.683-2.24,1.038-3.366a13.881,13.881,0,0,0,.847-6.7,11.342,11.342,0,0,0-2.957-5.517,24.383,24.383,0,0,0-4.459-3.667c-1.509-1.017-2.95-1.919-4.22-2.82a18.375,18.375,0,0,1-5.217-5.169,10.427,10.427,0,0,1-.895-1.789c-.082-.219-.123-.389-.164-.5A.546.546,0,0,1,168.05,259.52Z" transform="translate(-88.56 -253.284)" fill="#455a64"/>
    </g>
  </g>
</svg>
