<svg xmlns="http://www.w3.org/2000/svg" width="221.736" height="189" viewBox="0 0 221.736 189">
  <g id="Learning-pana_BLUE" data-name="Learning-pana BLUE" transform="translate(-24.84 -72.673)">
    <g id="freepik--Elements--inject-2" transform="translate(41.956 72.673)">
      <path id="Path_1202" data-name="Path 1202" d="M81.9,115.94a.542.542,0,0,1,.044.133l.108.394a5.687,5.687,0,0,0,.2.64c.089.246.182.537.325.847l.217.492.281.532a5.181,5.181,0,0,0,.325.566c.123.187.231.394.379.591a12.748,12.748,0,0,0,5.579,4.555,11.986,11.986,0,0,0,2.122.665,20.432,20.432,0,0,0,2.339.325,17.7,17.7,0,0,1,5.022.916,12.216,12.216,0,0,1,4.372,3.274,15.9,15.9,0,0,1,3.013,4.569,8.479,8.479,0,0,1,.6,2.551,9.572,9.572,0,0,1-.158,2.5,30.212,30.212,0,0,1-1.329,4.432,20.891,20.891,0,0,0-1.054,3.86,8.021,8.021,0,0,0,.123,3.27,6.091,6.091,0,0,0,1.069,2.226,4.481,4.481,0,0,0,1.152,1.064c.3.192.492.266.492.276a3.184,3.184,0,0,1-.492-.246,4.432,4.432,0,0,1-1.182-1.054,6.027,6.027,0,0,1-1.108-2.24,8.115,8.115,0,0,1-.153-3.314,21.331,21.331,0,0,1,1.044-3.885,30.878,30.878,0,0,0,1.31-4.432,9.774,9.774,0,0,0,.148-2.462,8.174,8.174,0,0,0-.6-2.5,15.855,15.855,0,0,0-2.984-4.525,12.064,12.064,0,0,0-4.313-3.23,17.439,17.439,0,0,0-4.973-.916,22.193,22.193,0,0,1-2.354-.335,12.147,12.147,0,0,1-2.167-.65,12.694,12.694,0,0,1-5.6-4.633c-.148-.2-.261-.4-.379-.6a6.179,6.179,0,0,1-.32-.576l-.276-.532L82.52,118a7.88,7.88,0,0,1-.315-.857,5.417,5.417,0,0,1-.182-.645c-.039-.172-.074-.305-.094-.4A1.092,1.092,0,0,1,81.9,115.94Z" transform="translate(-70.92 -94.636)" fill="#455a64"/>
      <path id="Path_1203" data-name="Path 1203" d="M102.23,105.34l.108.1.305.3c.133.133.281.31.492.492a3.673,3.673,0,0,1,.571.748,10.576,10.576,0,0,1,1.216,2.285,10.971,10.971,0,0,1,.744,3.343,11.454,11.454,0,0,1-.074,1.994,14.363,14.363,0,0,1-.463,2.117c-.409,1.438-.985,2.915-1.418,4.535a11.532,11.532,0,0,0-.359,2.526,10.774,10.774,0,0,0,.271,2.644,12.31,12.31,0,0,0,2.432,5.022,13.974,13.974,0,0,0,4.318,3.526,16.776,16.776,0,0,0,4.924,1.714c1.645.305,3.24.384,4.717.611a11.9,11.9,0,0,1,3.969,1.2,9.117,9.117,0,0,1,4.432,5.992c.03.182.049.32.069.423a1.023,1.023,0,0,1,0,.143.467.467,0,0,0-.034-.143,3.5,3.5,0,0,1-.084-.414,9.9,9.9,0,0,0-.492-1.546,9.3,9.3,0,0,0-1.344-2.181,8.863,8.863,0,0,0-2.61-2.147,11.817,11.817,0,0,0-3.939-1.167c-1.477-.222-3.068-.3-4.727-.6a17.14,17.14,0,0,1-4.973-1.723,14.152,14.152,0,0,1-4.372-3.565,12.615,12.615,0,0,1-2.462-5.067,11.359,11.359,0,0,1-.266-2.684,11.719,11.719,0,0,1,.364-2.56c.419-1.635,1.024-3.112,1.438-4.54a14.232,14.232,0,0,0,.492-2.093,10.8,10.8,0,0,0,.084-1.97,11.059,11.059,0,0,0-1.9-5.594c-.192-.3-.394-.537-.556-.758a2.876,2.876,0,0,0-.453-.492l-.291-.31a1.158,1.158,0,0,1-.133-.163Z" transform="translate(-81.239 -89.255)" fill="#455a64"/>
      <path id="Path_1204" data-name="Path 1204" d="M140.311,177a2.648,2.648,0,0,1-.384.35c-.256.222-.635.527-1.113.891a44.411,44.411,0,0,1-3.86,2.669,45.469,45.469,0,0,1-4.121,2.25c-.542.261-.985.463-1.29.591a2.463,2.463,0,0,1-.492.187,3.669,3.669,0,0,1,.458-.246l1.27-.635c1.069-.542,2.526-1.329,4.082-2.29s2.915-1.911,3.88-2.62l1.137-.847A3.367,3.367,0,0,1,140.311,177Z" transform="translate(-94.853 -125.63)" fill="#455a64"/>
      <path id="Path_1205" data-name="Path 1205" d="M136.56,172.8a2.249,2.249,0,0,1-.389.231l-1.073.581c-.906.492-2.147,1.192-3.491,2.014s-2.526,1.62-3.373,2.206l-.985.7a3.068,3.068,0,0,1-.379.241,2.392,2.392,0,0,1,.34-.3c.226-.182.561-.433.985-.739.832-.615,2.014-1.423,3.358-2.25s2.6-1.512,3.521-1.97c.463-.236.837-.419,1.1-.537a2.631,2.631,0,0,1,.384-.182Z" transform="translate(-93.746 -123.498)" fill="#455a64"/>
      <path id="Path_1206" data-name="Path 1206" d="M133.185,171.18a5.421,5.421,0,0,1-.763.556c-.492.32-1.157.753-1.915,1.211s-1.453.847-1.97,1.123a5.365,5.365,0,0,1-.847.409,5.653,5.653,0,0,1,.788-.492l1.94-1.162,1.94-1.167A5.2,5.2,0,0,1,133.185,171.18Z" transform="translate(-94.163 -122.676)" fill="#455a64"/>
      <path id="Path_1207" data-name="Path 1207" d="M127.533,162.68a3.121,3.121,0,0,1-.576.419l-1.423.955-1.413.985a3.265,3.265,0,0,1-.6.379,2.62,2.62,0,0,1,.532-.492c.345-.276.832-.635,1.389-1.014a17.329,17.329,0,0,1,1.477-.916,2.7,2.7,0,0,1,.615-.315Z" transform="translate(-92.046 -118.361)" fill="#455a64"/>
      <path id="Path_1208" data-name="Path 1208" d="M123.826,155.1c0,.025-.419.251-1.093.64s-1.6.955-2.565,1.635-1.817,1.359-2.413,1.861a12.221,12.221,0,0,1-.985.808,1.783,1.783,0,0,1,.227-.256c.153-.158.384-.374.675-.64a25.087,25.087,0,0,1,5-3.511c.345-.182.63-.32.827-.414A1.336,1.336,0,0,1,123.826,155.1Z" transform="translate(-88.62 -114.513)" fill="#455a64"/>
      <path id="Path_1209" data-name="Path 1209" d="M119.31,149.219c.025.039-1.7,1.285-3.86,2.792s-3.939,2.688-3.939,2.654,1.7-1.29,3.855-2.792S119.28,149.18,119.31,149.219Z" transform="translate(-85.95 -111.528)" fill="#455a64"/>
      <path id="Path_1210" data-name="Path 1210" d="M115.594,142.59a1.934,1.934,0,0,1-.335.246c-.246.167-.556.379-.931.625-.788.527-1.871,1.265-3.048,2.1s-2.221,1.625-2.954,2.2l-.9.68a1.969,1.969,0,0,1-.34.231,1.788,1.788,0,0,1,.3-.286c.2-.172.492-.419.862-.719.739-.6,1.773-1.4,2.954-2.235s2.275-1.566,3.077-2.068c.4-.251.734-.448.985-.581A1.842,1.842,0,0,1,115.594,142.59Z" transform="translate(-83.706 -108.163)" fill="#455a64"/>
      <path id="Path_1211" data-name="Path 1211" d="M111.342,138.919c.03.034-1.438,1.1-3.27,2.373s-3.343,2.27-3.373,2.235,1.443-1.1,3.274-2.373S111.317,138.879,111.342,138.919Z" transform="translate(-82.492 -106.299)" fill="#455a64"/>
      <path id="Path_1212" data-name="Path 1212" d="M108.141,135.22a13.939,13.939,0,0,1-1.684,1.453A15.1,15.1,0,0,1,104.67,138a24.386,24.386,0,0,1,3.471-2.777Z" transform="translate(-82.478 -104.422)" fill="#455a64"/>
      <path id="Path_1213" data-name="Path 1213" d="M101.858,125.93a5.466,5.466,0,0,1-.719.665c-.458.389-1.108.916-1.846,1.477s-1.423,1.024-1.93,1.354a4.972,4.972,0,0,1-.842.492,6.4,6.4,0,0,1,.778-.6c.492-.355,1.162-.842,1.9-1.389s1.393-1.059,1.871-1.428A6.119,6.119,0,0,1,101.858,125.93Z" transform="translate(-78.341 -99.707)" fill="#455a64"/>
      <path id="Path_1214" data-name="Path 1214" d="M99.87,119.61a1.971,1.971,0,0,1-.33.256c-.212.158-.532.374-.926.635-.793.527-1.906,1.231-3.161,1.97s-2.423,1.339-3.274,1.763c-.423.212-.773.379-1.014.492a1.837,1.837,0,0,1-.384.158,2.225,2.225,0,0,1,.355-.212l.985-.537c.837-.448,1.97-1.078,3.245-1.807s2.373-1.408,3.181-1.911l.955-.591A1.866,1.866,0,0,1,99.87,119.61Z" transform="translate(-75.427 -96.499)" fill="#455a64"/>
      <path id="Path_1215" data-name="Path 1215" d="M96.24,112.86a2.694,2.694,0,0,1-.359.271c-.236.167-.581.4-1.014.694-.862.571-2.063,1.349-3.407,2.181s-2.57,1.561-3.447,2.073c-.448.256-.812.463-1.069.6a2.843,2.843,0,0,1-.4.2,2.376,2.376,0,0,1,.369-.256l1.044-.645,3.447-2.112,3.447-2.137,1.044-.65a2.173,2.173,0,0,1,.35-.217Z" transform="translate(-73.275 -93.072)" fill="#455a64"/>
      <path id="Path_1216" data-name="Path 1216" d="M360.664,307.8c-.025.025-.389-.34-1.1-.945-.355-.3-.793-.665-1.325-1.054a14.879,14.879,0,0,0-1.891-1.182,8.068,8.068,0,0,0-1.182-.492,3.9,3.9,0,0,0-1.329-.236,1.432,1.432,0,0,0-.645.153.985.985,0,0,0-.443.468,1.625,1.625,0,0,0-.133.7,3.5,3.5,0,0,0,.1.768,7.322,7.322,0,0,0,.571,1.541,14.245,14.245,0,0,0,.872,1.512,20.972,20.972,0,0,0,5.1,5.254,13.084,13.084,0,0,0,1.477.916,7.2,7.2,0,0,0,1.526.62,3.466,3.466,0,0,0,.763.123,1.635,1.635,0,0,0,.7-.113.985.985,0,0,0,.492-.428,1.477,1.477,0,0,0,.172-.64,3.825,3.825,0,0,0-.2-1.339,8.635,8.635,0,0,0-.492-1.2,15.323,15.323,0,0,0-1.128-1.925c-.374-.542-.719-.985-1.014-1.354-.581-.724-.936-1.1-.911-1.128s.108.074.29.246.433.428.744.778a16.94,16.94,0,0,1,1.078,1.325,14.3,14.3,0,0,1,1.2,1.93,9.735,9.735,0,0,1,.517,1.231,4.18,4.18,0,0,1,.231,1.477,1.748,1.748,0,0,1-.207.793,1.325,1.325,0,0,1-.64.586,2,2,0,0,1-.857.153,3.829,3.829,0,0,1-.852-.123,7.73,7.73,0,0,1-1.61-.64,13.439,13.439,0,0,1-1.536-.985,20.751,20.751,0,0,1-5.2-5.367,13.3,13.3,0,0,1-.891-1.556,7.786,7.786,0,0,1-.586-1.63,3.563,3.563,0,0,1-.1-.852,1.891,1.891,0,0,1,.177-.852,1.334,1.334,0,0,1,.606-.625,1.8,1.8,0,0,1,.8-.182,4.16,4.16,0,0,1,1.448.276,8.866,8.866,0,0,1,1.211.556,14.144,14.144,0,0,1,1.891,1.256c.527.414.955.793,1.3,1.118s.591.586.753.768A2.12,2.12,0,0,1,360.664,307.8Z" transform="translate(-208.139 -189.857)" fill="#455a64"/>
      <path id="Path_1217" data-name="Path 1217" d="M358.75,307.661c.03,0-.113.492-.3,1.369-.094.443-.2.985-.281,1.615a13.785,13.785,0,0,0-.118,2.152,7.743,7.743,0,0,0,.128,1.236,3.682,3.682,0,0,0,.438,1.231,1.478,1.478,0,0,0,.443.468,1.043,1.043,0,0,0,.606.167,1.623,1.623,0,0,0,.675-.167,3.122,3.122,0,0,0,.62-.419,7.041,7.041,0,0,0,1.078-1.172,12.481,12.481,0,0,0,.9-1.423,19.537,19.537,0,0,0,2.142-6.746,13.007,13.007,0,0,0,.084-1.679,7.12,7.12,0,0,0-.2-1.581,3.6,3.6,0,0,0-.266-.7,1.6,1.6,0,0,0-.433-.532,1.024,1.024,0,0,0-.591-.217,1.478,1.478,0,0,0-.63.128,3.728,3.728,0,0,0-1.069.748,7.978,7.978,0,0,0-.817.94A13.471,13.471,0,0,0,360,304.9c-.3.561-.522,1.064-.7,1.477-.355.832-.517,1.3-.547,1.295a1.094,1.094,0,0,1,.074-.359c.064-.231.167-.566.32-.985s.364-.94.645-1.522a13.113,13.113,0,0,1,1.118-1.9,7.278,7.278,0,0,1,.832-.985,3.941,3.941,0,0,1,1.157-.842,1.827,1.827,0,0,1,.773-.163,1.394,1.394,0,0,1,.8.276,2,2,0,0,1,.542.645,3.646,3.646,0,0,1,.305.778,7.213,7.213,0,0,1,.227,1.664,12.169,12.169,0,0,1-.074,1.738,19.2,19.2,0,0,1-2.191,6.894,12.357,12.357,0,0,1-.94,1.477,7.153,7.153,0,0,1-1.147,1.226,3.6,3.6,0,0,1-.694.458,1.939,1.939,0,0,1-.817.217,1.408,1.408,0,0,1-.808-.231,1.891,1.891,0,0,1-.542-.581,3.973,3.973,0,0,1-.458-1.354,7.382,7.382,0,0,1-.108-1.285,12.637,12.637,0,0,1,.182-2.2,16.116,16.116,0,0,1,.35-1.615c.118-.438.231-.773.31-.985a1.128,1.128,0,0,1,.148-.384Z" transform="translate(-210.947 -188.532)" fill="#455a64"/>
      <path id="Path_1218" data-name="Path 1218" d="M355.76,309.295c0,.034-.492.162-1.325.468-.423.153-.936.35-1.521.611a13.675,13.675,0,0,0-1.891,1.034,7.215,7.215,0,0,0-.985.758,3.556,3.556,0,0,0-.812,1.019,1.478,1.478,0,0,0-.167.62,1.029,1.029,0,0,0,.182.606,1.521,1.521,0,0,0,.492.463,3.41,3.41,0,0,0,.68.31,7.226,7.226,0,0,0,1.566.3,12.756,12.756,0,0,0,1.684,0,18.6,18.6,0,0,0,3.511-.547,18.858,18.858,0,0,0,3.353-1.182,13.181,13.181,0,0,0,1.477-.812,6.75,6.75,0,0,0,1.236-.985,3.023,3.023,0,0,0,.453-.6,1.56,1.56,0,0,0,.226-.645,1.054,1.054,0,0,0-.123-.616,1.561,1.561,0,0,0-.443-.492,3.648,3.648,0,0,0-1.2-.492,7.881,7.881,0,0,0-1.226-.2,13.782,13.782,0,0,0-2.157,0c-.635.049-1.182.118-1.63.182-.886.138-1.374.251-1.384.217a1.2,1.2,0,0,1,.345-.123c.227-.069.566-.158,1.014-.251a16.479,16.479,0,0,1,1.635-.251,13.225,13.225,0,0,1,2.2-.049,7.532,7.532,0,0,1,1.275.187,3.811,3.811,0,0,1,1.325.542,1.787,1.787,0,0,1,.547.571,1.363,1.363,0,0,1,.182.822,1.885,1.885,0,0,1-.261.8,3.657,3.657,0,0,1-.492.665,7.219,7.219,0,0,1-1.3,1.073,12.939,12.939,0,0,1-1.517.852,18.93,18.93,0,0,1-3.447,1.216,18.437,18.437,0,0,1-3.59.547,11.991,11.991,0,0,1-1.738-.03,7.1,7.1,0,0,1-1.649-.33,3.532,3.532,0,0,1-.758-.35,2.019,2.019,0,0,1-.611-.581,1.4,1.4,0,0,1-.226-.808,1.8,1.8,0,0,1,.212-.768,3.939,3.939,0,0,1,.906-1.1,8.054,8.054,0,0,1,1.039-.768,13.21,13.21,0,0,1,1.97-.985,16.309,16.309,0,0,1,1.561-.551c.433-.128.778-.212,1.009-.261A1.191,1.191,0,0,1,355.76,309.295Z" transform="translate(-206.342 -192.436)" fill="#455a64"/>
      <path id="Path_1219" data-name="Path 1219" d="M365.409,314.74a1.32,1.32,0,1,1-1.6-.96A1.32,1.32,0,0,1,365.409,314.74Z" transform="translate(-213.51 -195.04)" fill="#455a64"/>
      <path id="Path_1220" data-name="Path 1220" d="M394.812,245.966l-.148-.069-.428-.217-1.65-.857-6.061-3.186h.054l-18.672,7.135-.167.064.049-.172.571-2.063c1.3-4.707,2.541-9.163,3.624-13.083v-.03h0l10.34-7.75,2.954-2.186.783-.576.2-.143q.064-.054.074-.044l-.064.054-.2.158-.768.591-2.915,2.221-10.311,7.8.03-.044c-1.083,3.939-2.309,8.371-3.609,13.093-.2.7-.389,1.408-.571,2.063l-.118-.108,18.711-7.086h.03l6.032,3.235,1.63.881.423.236Z" transform="translate(-216.013 -148.871)" fill="#295087"/>
      <path id="Path_1221" data-name="Path 1221" d="M369.544,273.191l-1.118.33-.359,1.108-.66-.96H366.24l.709-.926-.359-1.108,1.1.389.94-.684-.03,1.167Z" transform="translate(-215.251 -173.517)" fill="#295087"/>
      <path id="Path_1222" data-name="Path 1222" d="M377.322,242.657l-.7.256-.192.729-.463-.591-.753.044.423-.625-.276-.7.724.207.581-.478.025.753Z" transform="translate(-219.805 -158.37)" fill="#295087"/>
      <path id="Path_1223" data-name="Path 1223" d="M405.54,221.135l-.512.773.34.857-.891-.251-.709.591-.039-.926-.778-.492.867-.32.227-.9.576.724Z" transform="translate(-233.886 -147.695)" fill="#295087"/>
      <path id="Path_1224" data-name="Path 1224" d="M422.345,267.195l-.517.773.345.857-.891-.251-.714.591-.035-.926-.783-.492.867-.32.231-.9.571.724Z" transform="translate(-242.413 -171.076)" fill="#295087"/>
      <path id="Path_1225" data-name="Path 1225" d="M405.674,259.728l-.33.492.222.547-.571-.162-.453.379-.02-.591-.5-.315.556-.207.143-.571.369.468Z" transform="translate(-234.429 -167.406)" fill="#295087"/>
      <circle id="Ellipse_16" data-name="Ellipse 16" cx="9.454" cy="9.454" r="9.454" transform="matrix(0.161, -0.987, 0.987, 0.161, 102.851, 20.345)" fill="#295087"/>
      <g id="Group_360" data-name="Group 360" transform="translate(109.381 13.953)" opacity="0.3">
        <path id="Path_1226" data-name="Path 1226" d="M284.822,102.551a1.541,1.541,0,1,1-1.541-1.541A1.541,1.541,0,0,1,284.822,102.551Z" transform="translate(-281.74 -101.01)" fill="#fff"/>
      </g>
      <g id="Group_361" data-name="Group 361" transform="translate(108.505 10.147)" opacity="0.3">
        <path id="Path_1227" data-name="Path 1227" d="M281.752,94.176a.9.9,0,1,1-.9-.9A.9.9,0,0,1,281.752,94.176Z" transform="translate(-279.96 -93.28)" fill="#fff"/>
      </g>
      <path id="Path_1228" data-name="Path 1228" d="M265.376,87.518c.044.162-8.09,7.967-5.992,9.631s10.916-2.6,18.435-8.676,14.383-13.447,12.5-15.4S279.05,76.9,279.05,76.9l1.142.714s5.677-3.644,7.475-2.231-3.324,6.943-10.552,12.221-14.216,8.981-15.3,7.534,4.033-6.268,4.033-6.268Z" transform="translate(-160.835 -72.673)" fill="#295087"/>
      <g id="Group_362" data-name="Group 362" transform="translate(98.203)" opacity="0.3">
        <path id="Path_1229" data-name="Path 1229" d="M265.376,87.518c.044.162-8.09,7.967-5.992,9.631s10.916-2.6,18.435-8.676,14.383-13.447,12.5-15.4S279.05,76.9,279.05,76.9l1.142.714s5.677-3.644,7.475-2.231-3.324,6.943-10.552,12.221-14.216,8.981-15.3,7.534,4.033-6.268,4.033-6.268Z" transform="translate(-259.038 -72.673)"/>
      </g>
      <g id="Group_363" data-name="Group 363" transform="translate(104.972 5.876)" opacity="0.3">
        <path id="Path_1230" data-name="Path 1230" d="M276.338,84.613c.074.094-.566.635-1.29,1.728a8.706,8.706,0,0,0-.192,9.562c.684,1.118,1.3,1.689,1.221,1.778s-.808-.374-1.65-1.477a8.326,8.326,0,0,1,.2-10.163C275.5,84.958,276.274,84.549,276.338,84.613Z" transform="translate(-272.785 -84.607)" fill="#fff"/>
      </g>
      <path id="Path_1231" data-name="Path 1231" d="M319.578,109.544a5.49,5.49,0,1,1,5.357,5.618A5.49,5.49,0,0,1,319.578,109.544Z" transform="translate(-191.565 -88.668)" fill="#295087"/>
      <g id="Group_364" data-name="Group 364" transform="translate(135.291 18.03)" opacity="0.4">
        <path id="Path_1232" data-name="Path 1232" d="M334.36,110.167a.891.891,0,1,1,.245.639A.9.9,0,0,1,334.36,110.167Z" transform="translate(-334.359 -109.291)"/>
      </g>
      <g id="Group_365" data-name="Group 365" transform="translate(137.083 20.488)" opacity="0.4">
        <path id="Path_1233" data-name="Path 1233" d="M338,114.788a.522.522,0,1,1,.492.537A.522.522,0,0,1,338,114.788Z" transform="translate(-338 -114.282)"/>
      </g>
      <g id="Group_366" data-name="Group 366" transform="translate(136.187 22.594)" opacity="0.4">
        <path id="Path_1234" data-name="Path 1234" d="M336.372,118.56a.2.2,0,0,1,.192.2.192.192,0,0,1-.2.187.187.187,0,0,1-.187-.2A.192.192,0,0,1,336.372,118.56Z" transform="translate(-336.18 -118.56)"/>
      </g>
      <path id="Path_1235" data-name="Path 1235" d="M365.534,166.241c-.049,0-.084-6.953-.084-15.525s.034-15.525.084-15.525.084,6.948.084,15.525S365.578,166.241,365.534,166.241Z" transform="translate(-214.85 -104.407)" fill="#263238"/>
      <path id="Path_1236" data-name="Path 1236" d="M365.637,133.644a13.917,13.917,0,0,1-1.054-1.8h.148v.039a15.015,15.015,0,0,1-.9,1.935,12.963,12.963,0,0,1,.748-2v-.039l.069-.158.079.148A13.006,13.006,0,0,1,365.637,133.644Z" transform="translate(-214.028 -102.595)" fill="#263238"/>
      <path id="Path_1237" data-name="Path 1237" d="M364.529,126.643c-.03.034-.286-.133-.492-.443s-.256-.611-.212-.62.162.246.35.532S364.558,126.609,364.529,126.643Z" transform="translate(-214.018 -99.529)" fill="#263238"/>
      <path id="Path_1238" data-name="Path 1238" d="M364.28,127.3a5.785,5.785,0,0,1,.394-1.108,5.542,5.542,0,0,1,.453-1.083,3.28,3.28,0,0,1-.3,1.142A3.235,3.235,0,0,1,364.28,127.3Z" transform="translate(-214.256 -99.29)" fill="#263238"/>
      <path id="Path_1239" data-name="Path 1239" d="M361.1,141.49a9.245,9.245,0,0,0,.286-.955,9.6,9.6,0,0,0,0-.985,1.418,1.418,0,0,1,.143,1.024,1.4,1.4,0,0,1-.428.916Z" transform="translate(-212.642 -106.62)" fill="#263238"/>
      <path id="Path_1240" data-name="Path 1240" d="M360.915,140.1a.309.309,0,0,1-.236.182.463.463,0,0,1-.34-.059.463.463,0,0,1,.3-.857c.2,0,.271.148.251.158a.953.953,0,0,0-.256-.039.33.33,0,0,0-.335.355.34.34,0,0,0,.369.325C360.816,140.17,360.9,140.081,360.915,140.1Z" transform="translate(-212.152 -106.526)" fill="#263238"/>
      <path id="Path_1241" data-name="Path 1241" d="M387.3,193.684c0,.044-5.948.084-13.295.084s-13.295-.039-13.295-.084,5.943-.084,13.295-.084S387.3,193.639,387.3,193.684Z" transform="translate(-212.444 -134.056)" fill="#263238"/>
      <path id="Path_1242" data-name="Path 1242" d="M413.047,192.837a4.012,4.012,0,0,1-1.113-.345A4.116,4.116,0,0,1,410.9,192a3.88,3.88,0,0,1,1.093.35,3.993,3.993,0,0,1,1.054.488Z" transform="translate(-237.921 -133.244)" fill="#263238"/>
      <path id="Path_1243" data-name="Path 1243" d="M413.982,193.9a5.373,5.373,0,0,1-1.812.635,3.057,3.057,0,0,1,.881-.394A2.777,2.777,0,0,1,413.982,193.9Z" transform="translate(-238.566 -134.208)" fill="#263238"/>
      <path id="Path_1244" data-name="Path 1244" d="M362.2,195.48a.817.817,0,0,1,.345.551,1.172,1.172,0,0,1-.054.724.837.837,0,0,1-.266.359.453.453,0,0,1-.492,0,.95.95,0,0,1-.384-.808.842.842,0,0,1,.3-.665.635.635,0,0,1,.468-.153c.118,0,.172.054.167.059a1.533,1.533,0,0,1-.167,0,.645.645,0,0,0-.389.177.734.734,0,0,0-.222.571.827.827,0,0,0,.315.67.3.3,0,0,0,.325,0,.7.7,0,0,0,.222-.286,1.157,1.157,0,0,0,.079-.64A2.01,2.01,0,0,0,362.2,195.48Z" transform="translate(-212.768 -135.01)" fill="#263238"/>
      <path id="Path_1245" data-name="Path 1245" d="M406.24,196.126s.094-.054.222.054a.33.33,0,0,1,.113.266.566.566,0,0,1-.158.34c-.187.207-.532.286-.689.537a.443.443,0,0,0,0,.428.419.419,0,0,0,.4.2.4.4,0,0,0,.35-.286.438.438,0,0,0-.084-.423,1.207,1.207,0,0,0-.355-.281.527.527,0,0,1-.315-.325.438.438,0,0,1,.084-.369.552.552,0,0,1,.222-.167c.143-.049.227-.039.231-.03a.59.59,0,0,0-.2.089.492.492,0,0,0-.177.162.335.335,0,0,0-.044.286c.049.212.443.241.675.542a.6.6,0,0,1,.118.571.566.566,0,0,1-.492.394.581.581,0,0,1-.561-.281.6.6,0,0,1,0-.591.985.985,0,0,1,.394-.325,1.761,1.761,0,0,0,.34-.217.457.457,0,0,0,.148-.266.286.286,0,0,0-.064-.212C406.338,196.126,406.24,196.141,406.24,196.126Z" transform="translate(-235.181 -135.307)" fill="#263238"/>
      <path id="Path_1246" data-name="Path 1246" d="M406.772,193.407a3.256,3.256,0,0,1,0-1.477,3.253,3.253,0,0,1,0,1.477Z" transform="translate(-235.783 -133.208)" fill="#263238"/>
      <path id="Path_1247" data-name="Path 1247" d="M420.106,192.464a1.2,1.2,0,0,1-.453.069l-.492.03a.178.178,0,0,1-.113,0,.138.138,0,0,1-.059-.148.305.305,0,0,1,.1-.158l.217-.226a.718.718,0,0,0,.271-.468.3.3,0,0,0-.207-.305.492.492,0,0,0-.29.054c-.074.03-.113.049-.123.039s.025-.044.089-.094a.492.492,0,0,1,.345-.118.423.423,0,0,1,.34.428.847.847,0,0,1-.3.576l-.227.222c-.039.034-.069.069-.069.084h.522A1.329,1.329,0,0,1,420.106,192.464Z" transform="translate(-242.01 -132.807)" fill="#263238"/>
      <path id="Path_1248" data-name="Path 1248" d="M371.191,187.709v-.458c0-.291,0-.719-.025-1.216,0-1.034-.03-2.462-.034-4.1l.079.084h-1.541l.084-.084h0v3.27c0,.985,0,1.822-.025,2.5l-.049-.049,1.123.025c.266,0,.414,0,.419.025a3.03,3.03,0,0,1-.389,0l-1.152.025h-.049v-5.815h0l.084-.084h1.576v.079c0,1.669,0,3.122-.039,4.151v1.2A2.667,2.667,0,0,1,371.191,187.709Z" transform="translate(-216.972 -128.082)" fill="#263238"/>
      <path id="Path_1249" data-name="Path 1249" d="M401.016,184.938a.935.935,0,0,1,0-.177v-.492c0-.443,0-1.044-.025-1.787,0-1.507-.03-3.594-.034-5.963l.084.079h-1.546l.084-.079h0v4.875c0,1.428-.025,2.639-.03,3.526l-.044-.044h1.546a2.777,2.777,0,0,1-.389,0l-1.157.025h-.044v-.044c0-.886,0-2.1-.03-3.526v-4.875h0l.084-.084h1.625v.084c0,2.4,0,4.52-.034,6.022,0,.734,0,1.329-.025,1.768v.492C401.08,184.884,401.016,184.943,401.016,184.938Z" transform="translate(-232.099 -125.31)" fill="#263238"/>
      <path id="Path_1250" data-name="Path 1250" d="M378.713,182.8a1.38,1.38,0,0,1,0-.217v-.611c0-.537,0-1.29-.025-2.226,0-1.886,0-4.491-.034-7.43l.084.084h-1.546c.167-.167.044-.044.084-.079h0V178.5c0,1.792-.025,3.27-.034,4.294l-.039-.039h-.039v-.039c0-1.024,0-2.5-.03-4.294v-6.185h0c.039-.039-.084.079.084-.089h1.625v.079c0,2.954-.025,5.589-.034,7.489,0,.926,0,1.674-.025,2.206v.591A.66.66,0,0,1,378.713,182.8Z" transform="translate(-220.777 -123.168)" fill="#263238"/>
      <path id="Path_1251" data-name="Path 1251" d="M386.087,176.807a.556.556,0,0,1,0-.084v-1.2c0-.822,0-2-.025-3.447,0-2.925-.025-6.967-.039-11.507l.084.084h-1.561l.079-.079h0v9.8c0,2.8-.03,5.037-.039,6.4l-.03-.03h-.02v-.034c0-1.389,0-3.629-.034-6.4v-9.8h0c.034-.039-.084.079.084-.089h1.625v.084c0,4.56,0,8.627-.034,11.566,0,1.448,0,2.62-.025,3.447v1.162C386.091,176.787,386.091,176.812,386.087,176.807Z" transform="translate(-224.516 -117.214)" fill="#263238"/>
      <path id="Path_1252" data-name="Path 1252" d="M393.7,165.33v-2.152c0-1.384,0-3.383-.025-5.85,0-4.924,0-11.783-.034-19.415l.084.084h-1.546c.163-.163.049-.039.084-.074v17.155c0,4.776-.034,8.405-.044,10.252h-.025v-.03c0-1.846-.025-5.475-.039-10.252V137.9c.039-.039-.084.074.084-.094h1.625v.094c0,7.657,0,14.516-.035,19.474,0,2.462,0,4.432-.025,5.83v1.979A.164.164,0,0,1,393.7,165.33Z" transform="translate(-228.401 -105.737)" fill="#263238"/>
      <path id="Path_1253" data-name="Path 1253" d="M59.6,197l1.315,23.059,38.579-2.2Zm6.445,8.947,16.594,8.863-16.037.9Z" transform="translate(-59.6 -135.782)" fill="#295087"/>
      <path id="Path_1254" data-name="Path 1254" d="M65.872,201.09a4.732,4.732,0,0,1-.611,1.433,4.653,4.653,0,0,1-.852,1.315,8.647,8.647,0,0,1,1.462-2.748Z" transform="translate(-62.042 -137.858)" fill="#263238"/>
      <path id="Path_1255" data-name="Path 1255" d="M77.9,207.3a4.629,4.629,0,0,1-.611,1.413,4.383,4.383,0,0,1-.842,1.275,4.491,4.491,0,0,1,.606-1.413A4.254,4.254,0,0,1,77.9,207.3Z" transform="translate(-68.153 -141.01)" fill="#263238"/>
      <path id="Path_1256" data-name="Path 1256" d="M89.623,213.51a4.51,4.51,0,0,1-.748,1.334,4.2,4.2,0,0,1-.985,1.182,4.5,4.5,0,0,1,.748-1.339A4.323,4.323,0,0,1,89.623,213.51Z" transform="translate(-73.96 -144.163)" fill="#263238"/>
      <path id="Path_1257" data-name="Path 1257" d="M101.443,220a4.244,4.244,0,0,1-.748,1.339,4.54,4.54,0,0,1-.985,1.182,4.244,4.244,0,0,1,.748-1.339,4.54,4.54,0,0,1,.985-1.182Z" transform="translate(-79.96 -147.457)" fill="#263238"/>
      <path id="Path_1258" data-name="Path 1258" d="M113.936,226.33a4.663,4.663,0,0,1-.68,1.423,4.713,4.713,0,0,1-.906,1.28,8.961,8.961,0,0,1,1.586-2.7Z" transform="translate(-86.376 -150.67)" fill="#263238"/>
      <path id="Path_1259" data-name="Path 1259" d="M126.9,233a4.073,4.073,0,0,1-.6,1.349,4.2,4.2,0,0,1-.837,1.216,4.151,4.151,0,0,1,.606-1.354A3.983,3.983,0,0,1,126.9,233Z" transform="translate(-93.031 -154.056)" fill="#263238"/>
      <path id="Path_1260" data-name="Path 1260" d="M70.346,203.048c.064.039-.044.374-.246.758s-.419.655-.492.62.044-.374.246-.753S70.282,203.024,70.346,203.048Z" transform="translate(-64.668 -138.851)" fill="#263238"/>
      <path id="Path_1261" data-name="Path 1261" d="M74.274,205c.069.034-.044.374-.246.753s-.414.66-.492.625.049-.374.246-.758S74.21,204.968,74.274,205Z" transform="translate(-66.662 -139.84)" fill="#263238"/>
      <path id="Path_1262" data-name="Path 1262" d="M83.046,209.647c.064.039-.044.374-.246.758s-.419.66-.492.62.044-.374.246-.753S82.982,209.613,83.046,209.647Z" transform="translate(-71.115 -142.2)" fill="#263238"/>
      <path id="Path_1263" data-name="Path 1263" d="M86.986,211.617c.064.035-.044.374-.246.753s-.419.66-.492.625.044-.374.246-.758S86.917,211.583,86.986,211.617Z" transform="translate(-73.115 -143.2)" fill="#263238"/>
      <path id="Path_1264" data-name="Path 1264" d="M94.914,216.058c.069.034-.044.374-.246.753s-.414.66-.492.625.044-.374.246-.758S94.85,216.028,94.914,216.058Z" transform="translate(-77.138 -145.455)" fill="#263238"/>
      <path id="Path_1265" data-name="Path 1265" d="M98.674,218c.069.034-.044.374-.246.753s-.414.66-.492.625.044-.379.246-.758A1.454,1.454,0,0,1,98.674,218Z" transform="translate(-79.047 -146.442)" fill="#263238"/>
      <path id="Path_1266" data-name="Path 1266" d="M106.784,222.237c.064.039-.044.374-.246.758s-.414.655-.492.62.044-.374.246-.753S106.72,222.2,106.784,222.237Z" transform="translate(-83.164 -148.591)" fill="#263238"/>
      <path id="Path_1267" data-name="Path 1267" d="M111.146,224.547c.064.039-.044.374-.246.758s-.419.66-.492.62.044-.374.246-.753S111.082,224.513,111.146,224.547Z" transform="translate(-85.379 -149.763)" fill="#263238"/>
      <path id="Path_1268" data-name="Path 1268" d="M118.986,228.677c.064.034-.044.374-.246.753s-.419.66-.492.625.044-.374.246-.758S118.917,228.643,118.986,228.677Z" transform="translate(-89.358 -151.86)" fill="#263238"/>
      <path id="Path_1269" data-name="Path 1269" d="M123.506,231c.064.039-.044.379-.246.758s-.419.66-.492.62.044-.374.246-.753S123.442,230.963,123.506,231Z" transform="translate(-91.653 -153.038)" fill="#263238"/>
      <path id="Path_1270" data-name="Path 1270" d="M175.529,113.673v-4.825c0-3.053-.025-7.386-.039-12.625l.074.069H158.113l.079-.084v17.451l-.069-.074,12.625.039h.049l-12.674.034H158V96.05h17.6v.074c0,5.239-.025,9.607-.034,12.674v4.776Z" transform="translate(-109.548 -84.539)" fill="#295087"/>
      <path id="Path_1271" data-name="Path 1271" d="M175.611,109.12a1.179,1.179,0,0,1,.133-.094l.4-.256,1.546-.985,5.682-3.511-.03.054V87.139l.079.084H166.2l-5.874,3.265-1.605.9-.419.227-.143.074a1.586,1.586,0,0,1,.133-.089l.414-.246,1.586-.921,5.83-3.348h17.332v17.308h-.03l-5.712,3.491-1.561.945-.409.241Z" transform="translate(-109.629 -79.986)" fill="#295087"/>
      <path id="Path_1272" data-name="Path 1272" d="M201.39,87.159c.025.039-1.7,1.088-3.851,2.344s-3.939,2.245-3.939,2.206,1.7-1.088,3.855-2.349S201.37,87.119,201.39,87.159Z" transform="translate(-127.619 -80.026)" fill="#295087"/>
      <path id="Path_1273" data-name="Path 1273" d="M158.986,130.369a.92.92,0,0,1-.374.31c-.227.128-.433.207-.453.167s.143-.177.369-.31S158.961,130.33,158.986,130.369Z" transform="translate(-109.628 -101.955)" fill="#295087"/>
      <path id="Path_1274" data-name="Path 1274" d="M162.346,128.439c.025.039-.143.182-.374.31s-.433.207-.453.167.143-.177.374-.31S162.321,128.4,162.346,128.439Z" transform="translate(-111.333 -100.975)" fill="#295087"/>
      <path id="Path_1275" data-name="Path 1275" d="M165.7,126.509c.025.039-.143.182-.369.31s-.433.207-.458.167.143-.177.374-.31S165.685,126.47,165.7,126.509Z" transform="translate(-113.038 -99.995)" fill="#295087"/>
      <path id="Path_1276" data-name="Path 1276" d="M169.07,124.579a.962.962,0,0,1-.374.31c-.227.133-.433.207-.458.167s.148-.177.374-.31S169.045,124.54,169.07,124.579Z" transform="translate(-114.744 -99.016)" fill="#295087"/>
      <path id="Path_1277" data-name="Path 1277" d="M172.436,122.649c0,.039-.143.177-.374.31s-.433.207-.453.167.143-.177.369-.31S172.411,122.61,172.436,122.649Z" transform="translate(-116.455 -98.036)" fill="#295087"/>
      <path id="Path_1278" data-name="Path 1278" d="M174.049,119.27c.044,0,.079.212.079.492s-.039.492-.089.492-.079-.212-.079-.492S174,119.265,174.049,119.27Z" transform="translate(-117.649 -96.326)" fill="#295087"/>
      <path id="Path_1279" data-name="Path 1279" d="M174.079,115.39c.044,0,.084.212.079.492s-.039.492-.084.492-.084-.217-.084-.492S174.034,115.39,174.079,115.39Z" transform="translate(-117.665 -94.356)" fill="#295087"/>
      <path id="Path_1280" data-name="Path 1280" d="M174.109,111.51c.044,0,.084.217.079.492s-.039.492-.084.492-.084-.217-.084-.492S174.064,111.51,174.109,111.51Z" transform="translate(-117.68 -92.387)" fill="#295087"/>
      <path id="Path_1281" data-name="Path 1281" d="M174.143,107.63c.044,0,.084.217.079.492s-.039.492-.084.492-.084-.212-.079-.492S174.1,107.63,174.143,107.63Z" transform="translate(-117.7 -90.417)" fill="#295087"/>
      <path id="Path_1282" data-name="Path 1282" d="M174.173,103.76c.044,0,.084.212.079.492s-.039.492-.084.492-.084-.212-.079-.492S174.129,103.76,174.173,103.76Z" transform="translate(-117.715 -88.453)" fill="#295087"/>
      <path id="Path_1283" data-name="Path 1283" d="M174.2,99.88c.049,0,.084.212.079.492s-.039.492-.084.492-.084-.217-.079-.492S174.159,99.88,174.2,99.88Z" transform="translate(-117.73 -86.484)" fill="#295087"/>
      <path id="Path_1284" data-name="Path 1284" d="M174.233,96c.049,0,.084.217.079.492s-.039.492-.084.492-.084-.217-.079-.492S174.189,96,174.233,96Z" transform="translate(-117.746 -84.514)" fill="#295087"/>
      <path id="Path_1285" data-name="Path 1285" d="M174.263,92.12c.049,0,.084.217.079.492s-.039.492-.084.492-.084-.212-.079-.492S174.219,92.12,174.263,92.12Z" transform="translate(-117.761 -82.545)" fill="#295087"/>
      <path id="Path_1286" data-name="Path 1286" d="M174.293,88.25c.049,0,.084.212.079.492s-.039.492-.084.492-.084-.212-.079-.492S174.249,88.25,174.293,88.25Z" transform="translate(-117.776 -80.58)" fill="#295087"/>
      <path id="Path_1287" data-name="Path 1287" d="M207.49,122c0-.039.212-.074.492-.074s.492.034.492.074-.212.079-.492.079S207.49,122.048,207.49,122Z" transform="translate(-134.669 -97.676)" fill="#295087"/>
      <path id="Path_1288" data-name="Path 1288" d="M203.61,122c0-.039.212-.074.492-.074s.492.034.492.074-.217.079-.492.079S203.61,122.048,203.61,122Z" transform="translate(-132.7 -97.676)" fill="#295087"/>
      <path id="Path_1289" data-name="Path 1289" d="M199.73,122c0-.039.212-.074.492-.074s.492.034.492.074-.212.079-.492.079S199.73,122.048,199.73,122Z" transform="translate(-130.73 -97.676)" fill="#295087"/>
      <path id="Path_1290" data-name="Path 1290" d="M195.85,122c0-.039.217-.074.492-.074s.492.034.492.074-.212.079-.492.079S195.85,122.048,195.85,122Z" transform="translate(-128.761 -97.676)" fill="#295087"/>
      <path id="Path_1291" data-name="Path 1291" d="M192,122c0-.039.212-.074.492-.074s.492.034.492.074-.212.079-.492.079S192,122.048,192,122Z" transform="translate(-126.807 -97.676)" fill="#295087"/>
      <path id="Path_1292" data-name="Path 1292" d="M188.1,122c0-.039.212-.074.492-.074s.492.034.492.074-.217.079-.492.079S188.1,122.048,188.1,122Z" transform="translate(-124.827 -97.676)" fill="#295087"/>
      <path id="Path_1293" data-name="Path 1293" d="M184.22,122c0-.039.212-.074.492-.074s.492.034.492.074-.212.079-.492.079S184.22,122.048,184.22,122Z" transform="translate(-122.857 -97.676)" fill="#295087"/>
      <path id="Path_1294" data-name="Path 1294" d="M180.34,122c0-.039.217-.074.492-.074s.492.034.492.074-.212.079-.492.079S180.34,122.048,180.34,122Z" transform="translate(-120.888 -97.676)" fill="#295087"/>
      <path id="Path_1295" data-name="Path 1295" d="M176.47,122c0-.039.212-.074.492-.074s.492.034.492.074-.212.079-.492.079S176.47,122.048,176.47,122Z" transform="translate(-118.924 -97.676)" fill="#295087"/>
      <path id="Path_1296" data-name="Path 1296" d="M174.12,122c0-.039.044-.074.1-.074s.1.034.1.074a.1.1,0,0,1-.1.079.089.089,0,0,1-.1-.079Z" transform="translate(-117.731 -97.676)" fill="#295087"/>
      <path id="Path_1297" data-name="Path 1297" d="M213.2,105.316a2.266,2.266,0,0,0,.438,0,1.364,1.364,0,0,0,.906-.684,1.832,1.832,0,0,0-.049-1.659.492.492,0,0,0-.345-.276.611.611,0,0,0-.443.118,2.107,2.107,0,0,0-.556.926,4.288,4.288,0,0,0-.246,1.187h-.163c0-1.265-.025-2.368-.025-3.156v-.926a1.4,1.4,0,0,1,0-.335,1.681,1.681,0,0,1,.034.335,8.306,8.306,0,0,0,.039.926c.03.788.059,1.891.084,3.156h-.162a4.432,4.432,0,0,1,.256-1.231,4.868,4.868,0,0,1,.236-.542,1.344,1.344,0,0,1,.374-.458.763.763,0,0,1,.571-.148.67.67,0,0,1,.443.355,1.93,1.93,0,0,1,0,1.8,1.374,1.374,0,0,1-.985.684,1.034,1.034,0,0,1-.335,0,.3.3,0,0,1-.074-.069Z" transform="translate(-137.319 -86.803)" fill="#295087"/>
      <path id="Path_1298" data-name="Path 1298" d="M94.953,274.7a.567.567,0,0,1,.2.059c.133.059.33.1.581.207a11.328,11.328,0,0,1,2.1,1.093,11.634,11.634,0,0,1,2.757,2.536,10.256,10.256,0,0,1,2.058,4.491,10,10,0,0,1-.763,5.909,9.291,9.291,0,0,1-1.92,2.757,8.927,8.927,0,0,1-1.374,1.113c-.261.148-.492.305-.788.443s-.542.271-.832.374a16.39,16.39,0,0,1-7.563.7c-1.32-.128-2.649-.32-4-.532a24.248,24.248,0,0,1-4.052-.94,10.267,10.267,0,0,1-3.629-2.039,8.206,8.206,0,0,1-1.329-1.566,8.464,8.464,0,0,1-.852-1.837,9.518,9.518,0,0,1-.389-3.885,10.4,10.4,0,0,1,1.073-3.58,11.961,11.961,0,0,1,4.885-4.806,16.165,16.165,0,0,1,5.722-1.822,22.387,22.387,0,0,1,4.963-.034,33.1,33.1,0,0,1,3.7.606c.985.226,1.773.433,2.295.576l.591.172.2.069-.207-.049-.6-.153c-.522-.133-1.3-.33-2.3-.542a33.084,33.084,0,0,0-3.7-.566,21.943,21.943,0,0,0-4.924.059,16.145,16.145,0,0,0-5.658,1.827,11.818,11.818,0,0,0-4.8,4.747,10.158,10.158,0,0,0-1.039,3.526,9.385,9.385,0,0,0,.384,3.806,8.085,8.085,0,0,0,.827,1.792,7.917,7.917,0,0,0,1.29,1.526,10.182,10.182,0,0,0,3.56,2,24.191,24.191,0,0,0,4.028.931c1.344.212,2.679.4,3.988.532a16.217,16.217,0,0,0,7.479-.68,8.75,8.75,0,0,0,4.83-4.579,9.917,9.917,0,0,0,.778-5.82,10.217,10.217,0,0,0-2.014-4.432,11.742,11.742,0,0,0-2.708-2.536,12.306,12.306,0,0,0-2.073-1.123c-.251-.1-.443-.167-.576-.222Z" transform="translate(-67.468 -174.473)" fill="#263238"/>
      <path id="Path_1299" data-name="Path 1299" d="M85.851,295.647a1.579,1.579,0,0,1-.4.049l-1.1.054H83.99a1.54,1.54,0,0,1-.419,0,.359.359,0,0,1-.207-.167.606.606,0,0,1-.064-.236l-.03-.448c-.034-.62-.074-1.29-.113-1.97s-.084-1.374-.089-2a1.778,1.778,0,0,1,.207-.881,1.241,1.241,0,0,1,.6-.492,2.506,2.506,0,0,1,1.108-.123,1.291,1.291,0,0,1,.4.074,2.317,2.317,0,0,1-.4,0,2.6,2.6,0,0,0-1.049.172,1.064,1.064,0,0,0-.492.468,1.655,1.655,0,0,0-.172.8c0,.6.074,1.285.1,1.97s.069,1.374.1,1.97c.03.291-.034.655.167.7a1.28,1.28,0,0,0,.369,0h1.477A1.442,1.442,0,0,1,85.851,295.647Z" transform="translate(-71.513 -182.693)" fill="#263238"/>
      <path id="Path_1300" data-name="Path 1300" d="M85.483,295.422a2.871,2.871,0,0,1-1.024.118,2.817,2.817,0,0,1-1.029-.079,2.749,2.749,0,0,1,1.024-.118,2.8,2.8,0,0,1,1.029.079Z" transform="translate(-71.696 -185.693)" fill="#263238"/>
      <path id="Path_1301" data-name="Path 1301" d="M94.787,293.508a8.751,8.751,0,0,1-1.561.079,9.875,9.875,0,0,1-1.556,0,4.619,4.619,0,0,1,1.551-.212A4.835,4.835,0,0,1,94.787,293.508Z" transform="translate(-75.879 -184.694)" fill="#263238"/>
      <path id="Path_1302" data-name="Path 1302" d="M95.447,298.326a5.017,5.017,0,0,1-1.546.108,4.895,4.895,0,0,1-1.531-.182,8.032,8.032,0,0,1,1.536,0A8.536,8.536,0,0,1,95.447,298.326Z" transform="translate(-76.234 -187.159)" fill="#263238"/>
      <path id="Path_1303" data-name="Path 1303" d="M110.584,297.432v-.6a5.973,5.973,0,0,0-.3-1.615,1.645,1.645,0,0,0-.571-.931.492.492,0,0,0-.537.034,1.349,1.349,0,0,0-.409.492,6.894,6.894,0,0,0-.492,3.058h-.192a12.967,12.967,0,0,0-.03-2.265,9.022,9.022,0,0,0-.128-.911,1.182,1.182,0,0,0-.414-.709.615.615,0,0,0-.719,0,1.093,1.093,0,0,0-.453.62,4.205,4.205,0,0,0-.138.783c-.03.261-.054.517-.064.768a12.115,12.115,0,0,0,0,1.4h-.153c-.039-1.108-.074-2.014-.1-2.679v-.729a1.028,1.028,0,0,1,0-.256,1.357,1.357,0,0,1,.034.256l.059.729c.039.66.1,1.566.167,2.669H106a13.363,13.363,0,0,1,0-1.418,7.546,7.546,0,0,1,.059-.778,4.131,4.131,0,0,1,.143-.817,1.285,1.285,0,0,1,.522-.729.9.9,0,0,1,.492-.138.837.837,0,0,1,.492.162,1.374,1.374,0,0,1,.492.822,8.748,8.748,0,0,1,.138.936,13.351,13.351,0,0,1,0,2.3h-.192a6.893,6.893,0,0,1,.542-3.127,1.442,1.442,0,0,1,.492-.561.645.645,0,0,1,.7-.034,1.748,1.748,0,0,1,.615,1.019,5.722,5.722,0,0,1,.246,1.654,2.186,2.186,0,0,1-.025.448A.61.61,0,0,1,110.584,297.432Z" transform="translate(-83.094 -184.852)" fill="#263238"/>
      <path id="Path_1304" data-name="Path 1304" d="M121.083,297.033a.765.765,0,0,1-.236.167,1.866,1.866,0,0,1-.763.187,2,2,0,0,1-1.133-.31,1.97,1.97,0,0,1-.63-2.6,2.019,2.019,0,0,1,.867-.793,1.841,1.841,0,0,1,.763-.182.684.684,0,0,1,.286.039,2.837,2.837,0,0,0-.985.266,1.969,1.969,0,0,0-.768.758,1.856,1.856,0,0,0,.571,2.368,1.94,1.94,0,0,0,1.034.32A2.705,2.705,0,0,0,121.083,297.033Z" transform="translate(-89.279 -184.764)" fill="#263238"/>
      <path id="Path_1305" data-name="Path 1305" d="M123.855,285.914a10.069,10.069,0,0,0-2.191.379l-.33.108.246-.251a6.858,6.858,0,0,0,1.221-1.477,2.216,2.216,0,0,0,.256-1.512c-.054-.231-.192-.414-.379-.419a1.2,1.2,0,0,0-.556.148,2.172,2.172,0,0,0-.68.547c-.133.163-.187.271-.2.261a.655.655,0,0,1,.143-.305,1.867,1.867,0,0,1,.675-.62,1.27,1.27,0,0,1,.63-.192.492.492,0,0,1,.359.172.862.862,0,0,1,.182.359,2.339,2.339,0,0,1-.256,1.654,6.362,6.362,0,0,1-1.275,1.521l-.084-.148a6.087,6.087,0,0,1,1.615-.256,1.777,1.777,0,0,1,.625.03Z" transform="translate(-90.889 -179.223)" fill="#263238"/>
    </g>
    <g id="freepik--Character--inject-2" transform="translate(72.932 109.533)">
      <path id="Path_1306" data-name="Path 1306" d="M190.479,275.434l10.493-2.024,20.129,4.619,10.2,2.127.148,13.94-22.759,4.19-15.358-4.55-5.805-8.543Z" transform="translate(-155.514 -211.427)" fill="#ffbe9d"/>
      <path id="Path_1307" data-name="Path 1307" d="M160.162,277.934l9.9-2.334s7,21.665,24.28,20.715c14.083-.763,14.1-15.048,14.1-15.048l10.3,1.817s4.318,26.141-.414,44.478c-3.939,15.264-7.435,36.181-7.435,36.181h-68.4Z" transform="translate(-132.652 -212.539)" fill="#295087"/>
      <path id="Path_1308" data-name="Path 1308" d="M334.456,352.525S306.246,303.1,301.17,296.761c-5.559-6.943-10-6.14-10-6.14l-2.984,33.291,23.985,34.03L317.891,360Z" transform="translate(-206.61 -220.149)" fill="#295087"/>
      <path id="Path_1309" data-name="Path 1309" d="M151.2,279.78s-16.032,1.28-21.784,27.574c-2.6,11.882-5.909,25.807-6.834,35.162-.689,6.79,3.5,13.851,10.271,14.718l8.5,1.576a8.922,8.922,0,0,0,10.3-6.677l2.871-11.886-7.647-2.57,1.768-35.408Z" transform="translate(-122.51 -214.661)" fill="#295087"/>
      <path id="Path_1310" data-name="Path 1310" d="M295.807,328.12a1.749,1.749,0,0,1,.074.364c.044.266.094.62.162,1.059.034.231.069.492.113.768s.059.586.089.916c.069.655.148,1.4.182,2.236a53.875,53.875,0,0,1,.039,5.845,70.129,70.129,0,0,1-.709,7.12c-.369,2.511-.832,4.885-1.3,7.031s-.936,4.072-1.334,5.687-.748,2.91-.985,3.806c-.118.428-.212.773-.286,1.029a2.784,2.784,0,0,1-.113.355,2,2,0,0,1,.064-.364c.059-.266.143-.611.241-1.044l.906-3.846c.379-1.62.832-3.545,1.28-5.692s.911-4.515,1.28-7.022.62-4.924.724-7.1a51.921,51.921,0,0,0,0-5.82c0-.827-.089-1.576-.143-2.236-.025-.325-.049-.63-.069-.916s-.064-.532-.089-.768c-.049-.438-.084-.793-.113-1.059a2.655,2.655,0,0,1-.015-.354Z" transform="translate(-208.412 -239.198)" fill="#263238"/>
      <path id="Path_1311" data-name="Path 1311" d="M179.045,367.8a1.373,1.373,0,0,1-.084-.217c-.049-.162-.118-.369-.2-.635l-.315-1.019a3.039,3.039,0,0,0-.571-1.275,4.072,4.072,0,0,0-1.477-.906,11.858,11.858,0,0,0-2-.561,29.633,29.633,0,0,0-4.924-.492h-.133v-.128l1.448-9.439c.931-5.943,1.778-11.325,2.393-15.264.32-1.93.576-3.5.758-4.614.089-.527.162-.945.217-1.256a1.355,1.355,0,0,1,.064-.325.326.326,0,0,1,.03-.108.285.285,0,0,1,0,.113,1.081,1.081,0,0,1-.039.33c-.039.31-.1.729-.167,1.261-.162,1.118-.394,2.693-.675,4.629-.6,3.939-1.418,9.311-2.324,15.264-.532,3.4-1.029,6.613-1.477,9.434l-.113-.133a29.316,29.316,0,0,1,4.978.556,11.818,11.818,0,0,1,2.024.6,4.1,4.1,0,0,1,1.521.985,1.832,1.832,0,0,1,.384.684l.182.655c.113.4.207.744.286,1.029s.128.492.167.645a1.06,1.06,0,0,1,.049.192Z" transform="translate(-146.281 -240.944)" fill="#263238"/>
      <path id="Path_1312" data-name="Path 1312" d="M144.2,403.719a2.772,2.772,0,0,1,.128-.66,10.278,10.278,0,0,1,.62-1.728,11.763,11.763,0,0,1,9.41-6.849,10.263,10.263,0,0,1,1.832-.059,3,3,0,0,1,.67.084,21.916,21.916,0,0,0-2.462.153,12.138,12.138,0,0,0-9.272,6.746,23.3,23.3,0,0,0-.926,2.314Z" transform="translate(-133.52 -272.845)" fill="#263238"/>
      <path id="Path_1313" data-name="Path 1313" d="M151.73,386.7a1.216,1.216,0,0,1,.384-.034,8.146,8.146,0,0,1,1.059.049,12.07,12.07,0,0,1,3.383.847,12.339,12.339,0,0,1,3,1.778,7.934,7.934,0,0,1,.783.709c.172.182.266.286.251.3s-.433-.345-1.142-.867a14.192,14.192,0,0,0-6.3-2.59C152.277,386.765,151.73,386.746,151.73,386.7Z" transform="translate(-137.342 -268.915)" fill="#263238"/>
      <path id="Path_1314" data-name="Path 1314" d="M180.521,300.219a4,4,0,0,1-.034-.7c0-.453-.03-1.1-.089-1.906a31.071,31.071,0,0,0-1.073-6.189,31.606,31.606,0,0,0-2.309-5.84c-.374-.714-.689-1.285-.921-1.669a3.974,3.974,0,0,1-.335-.62,3.714,3.714,0,0,1,.419.566,17.9,17.9,0,0,1,.985,1.64,27.574,27.574,0,0,1,3.4,12.1,18.713,18.713,0,0,1,0,1.915,3.565,3.565,0,0,1-.039.7Z" transform="translate(-149.54 -216.443)" fill="#263238"/>
      <g id="Group_367" data-name="Group 367" transform="translate(86.544 87.833)" opacity="0.3">
        <path id="Path_1315" data-name="Path 1315" d="M298.393,349.053A24.754,24.754,0,0,0,299,325.91a64.651,64.651,0,0,1-.729,23.113" transform="translate(-298.27 -325.91)"/>
      </g>
      <g id="Group_368" data-name="Group 368" transform="translate(39.855 113.138)" opacity="0.3">
        <path id="Path_1316" data-name="Path 1316" d="M213.874,382.972c-3.1.911-7.386,1.133-10.424,0,2.368,3.363,6.933,4.579,10.892,3.486s7.612-5.057,7.918-9.159A16.888,16.888,0,0,1,213.874,382.972Z" transform="translate(-203.45 -377.3)"/>
      </g>
      <path id="Path_1317" data-name="Path 1317" d="M224.42,366.1a1.291,1.291,0,0,1-.074.276c-.059.177-.128.448-.266.773a16.041,16.041,0,0,1-1.334,2.7,17.337,17.337,0,0,1-2.8,3.486,16.958,16.958,0,0,1-9.745,4.678,17.374,17.374,0,0,1-4.471,0,16.591,16.591,0,0,1-2.954-.645c-.345-.1-.6-.217-.773-.281a1.718,1.718,0,0,1-.261-.113,10.823,10.823,0,0,1,1.059.3A17.611,17.611,0,0,0,223.977,367.1C224.262,366.464,224.4,366.09,224.42,366.1Z" transform="translate(-162.727 -258.477)" fill="#263238"/>
      <path id="Path_1318" data-name="Path 1318" d="M159.784,436.11a.727.727,0,0,1-.123.133,3.389,3.389,0,0,1-.4.34,6.237,6.237,0,0,1-1.694.9,9.715,9.715,0,0,1-2.8.492,25.6,25.6,0,0,1-3.447-.123c-2.462-.212-4.648-.571-6.229-.852-.793-.143-1.433-.266-1.871-.359a3.358,3.358,0,0,1-.684-.167,4.232,4.232,0,0,1,.7.069l1.886.276c1.586.241,3.782.566,6.224.778a28.041,28.041,0,0,0,3.447.143,10.052,10.052,0,0,0,2.748-.443A8.469,8.469,0,0,0,159.784,436.11Z" transform="translate(-132.677 -294.014)" fill="#263238"/>
      <path id="Path_1319" data-name="Path 1319" d="M269.511,170.97l2.024-1.97c2.693,1.172,3.939,4.3,4.4,7.2s.389,5.958,1.625,8.627c.945,2.053,2.664,3.939,2.462,6.209-.192,2.142-2.132,3.875-2.142,6.027,0,2.073,1.723,3.663,2.728,5.475,2.034,3.668,3.353,18.677,2.29,22.739-8.947-.773-24.792-1.728-33.744-3.787C251.509,206.073,261.44,184.309,269.511,170.97Z" transform="translate(-186.793 -158.429)" fill="#263238"/>
      <path id="Path_1320" data-name="Path 1320" d="M264.81,295.87Z" transform="translate(-194.742 -222.828)" fill="#ffbe9d"/>
      <path id="Path_1321" data-name="Path 1321" d="M254.914,178.771a20.281,20.281,0,0,0-17.6-21.341,19.7,19.7,0,0,0-22.158,17.7l-2.639,44.286a3.846,3.846,0,0,0,.68,2.408,18.078,18.078,0,0,0,11.517,7.361,18.924,18.924,0,0,0,11.67-2.423,3.772,3.772,0,0,0,1.915-3.24l.182-9.912a.059.059,0,0,1,.064-.064,13.457,13.457,0,0,0,2.782-.079c2.62-.64,9.3-3.21,11.547-13.019C253.619,197.2,254.367,187.964,254.914,178.771Z" transform="translate(-168.193 -152.482)" fill="#ffbe9d"/>
      <path id="Path_1322" data-name="Path 1322" d="M269.05,215.5a11.786,11.786,0,0,1,2.876-.305c.448,0,.876-.074.985-.369a2.206,2.206,0,0,0-.217-1.32l-1.1-3.447c-1.526-4.885-2.6-8.888-2.4-8.942s1.6,3.851,3.127,8.735q.547,1.81,1.049,3.447a2.492,2.492,0,0,1,.118,1.738,1.1,1.1,0,0,1-.773.586,3.052,3.052,0,0,1-.763.054A11.244,11.244,0,0,1,269.05,215.5Z" transform="translate(-196.894 -174.732)" fill="#263238"/>
      <path id="Path_1323" data-name="Path 1323" d="M286.44,206.529c-.192.212-1.354-.763-3.018-.812s-2.905.822-3.082.6c-.089-.1.113-.492.655-.9a3.994,3.994,0,0,1,2.462-.748,3.939,3.939,0,0,1,2.4.921C286.371,206.032,286.563,206.435,286.44,206.529Z" transform="translate(-202.614 -176.533)" fill="#263238"/>
      <path id="Path_1324" data-name="Path 1324" d="M251.519,207.1c-.227.212-1.438-.886-3.255-1.044s-3.23.675-3.412.428c-.089-.113.158-.492.773-.9a4.52,4.52,0,0,1,2.738-.611,4.431,4.431,0,0,1,2.57,1.118C251.47,206.574,251.627,207.007,251.519,207.1Z" transform="translate(-184.602 -176.681)" fill="#263238"/>
      <path id="Path_1325" data-name="Path 1325" d="M249.89,265.86s-6.785.074-14.9-5.5c0,0,2.1,8.952,14.846,8.671Z" transform="translate(-179.605 -204.803)" fill="#eb996e"/>
      <path id="Path_1326" data-name="Path 1326" d="M261.558,237.241a3.2,3.2,0,0,0-2.748-1.344,2.876,2.876,0,0,0-2.053.906,1.768,1.768,0,0,0-.271,2.039,2.146,2.146,0,0,0,2.255.729,6.652,6.652,0,0,0,2.324-1.162,2.048,2.048,0,0,0,.532-.492.576.576,0,0,0,.039-.64" transform="translate(-190.412 -192.384)" fill="#eb996e"/>
      <path id="Path_1327" data-name="Path 1327" d="M258.093,232c.286,0,.172,1.871,1.709,3.309s3.57,1.369,3.57,1.63c0,.123-.492.335-1.329.3a4.816,4.816,0,0,1-2.984-1.256,4.048,4.048,0,0,1-1.31-2.762C257.724,232.433,257.965,232,258.093,232Z" transform="translate(-191.156 -190.408)" fill="#263238"/>
      <path id="Path_1328" data-name="Path 1328" d="M250.727,193.757c-.207.453-1.935.1-4,.187s-3.762.492-4.008.074c-.1-.212.212-.625.916-1.029a7.041,7.041,0,0,1,6.1-.2C250.446,193.147,250.8,193.54,250.727,193.757Z" transform="translate(-183.519 -170.201)" fill="#263238"/>
      <path id="Path_1329" data-name="Path 1329" d="M286.328,194.3c-.354.394-1.758,0-3.447,0s-3.107.281-3.447-.128c-.148-.2.074-.591.694-.985a5.741,5.741,0,0,1,5.544.118C286.284,193.7,286.486,194.1,286.328,194.3Z" transform="translate(-202.143 -170.371)" fill="#263238"/>
      <path id="Path_1330" data-name="Path 1330" d="M236.274,150.263a5.929,5.929,0,0,0-4.515-2.551c-7.76-1.177-16.417,3.5-20.764,10.025s-4.579,16.274-1.4,23.443l4.84-3.023c9.715-4.008,16.574-13.369,22.823-23.039C238.131,153.8,237.087,151.617,236.274,150.263Z" transform="translate(-165.62 -147.531)" fill="#263238"/>
      <path id="Path_1331" data-name="Path 1331" d="M277.288,155.908c-3.245-3.693-5.6-7.386-12.339-4.806-.985,1.886.985,4.333,2.679,5.761,2.462,2.1,4.574,3.511,6.18,5.013,3.24,3.028,6.923,13.216,7.243,18.775,0,.35.616-4.771.985-4.826.453-.069,2.28-2.3,2.029-5.357C283.2,160.034,280.533,159.6,277.288,155.908Z" transform="translate(-194.678 -148.906)" fill="#263238"/>
      <path id="Path_1332" data-name="Path 1332" d="M256.87,147.847a2.772,2.772,0,0,1,1.512.128,6.539,6.539,0,0,1,3.063,2.014,5.49,5.49,0,0,1,.611.862,4.405,4.405,0,0,1,.354.931,10.182,10.182,0,0,1,.4,1.6,2.289,2.289,0,0,1-.143,1.512,11.55,11.55,0,0,0-.182-1.453,14.859,14.859,0,0,0-.492-1.522,4.712,4.712,0,0,0-.345-.842,5.553,5.553,0,0,0-.571-.8,7.237,7.237,0,0,0-2.812-2C257.426,147.975,256.86,147.926,256.87,147.847Z" transform="translate(-190.711 -147.665)" fill="#455a64"/>
      <path id="Path_1333" data-name="Path 1333" d="M286.6,213.613a1.477,1.477,0,0,1-1.393,1.477,1.413,1.413,0,0,1-1.541-1.3,1.477,1.477,0,0,1,1.393-1.512,1.408,1.408,0,0,1,1.541,1.339Z" transform="translate(-204.315 -180.391)" fill="#263238"/>
      <path id="Path_1334" data-name="Path 1334" d="M253.664,213.808a1.477,1.477,0,0,1-1.393,1.512,1.408,1.408,0,0,1-1.541-1.3,1.477,1.477,0,0,1,1.394-1.517,1.408,1.408,0,0,1,1.541,1.3Z" transform="translate(-187.594 -180.508)" fill="#263238"/>
      <path id="Path_1335" data-name="Path 1335" d="M162.889,194.678a7.651,7.651,0,0,1,3.644-3.55c1.674-.625,3.575-.985,4.89-2.206,2.063-1.9,1.97-5.047,1.782-7.795s-.236-5.909,1.871-7.755c1.763-1.541,4.564-1.679,6.091-3.447,1.019-1.177,1.221-2.8,1.576-4.3.985-4.023,3.186-11.049,15.043-15.092L187.3,190.385c.783.222,2.654,2,2.757,3.21.094,1.128-.394,2.27-.4,3.4,0,1.384,1.507,2.211,2.462,3.235a6.242,6.242,0,0,1,1.4,4.924,34.575,34.575,0,0,1-1.9,6.948c-9.73-.985-23.93-1.3-31.346-7.5C158.925,203.477,160.85,198.032,162.889,194.678Z" transform="translate(-141.45 -149.053)" fill="#263238"/>
      <path id="Path_1336" data-name="Path 1336" d="M213.624,209.1c-.182-.1-7.347-2.954-7.8,4.6s7.209,6.436,7.233,6.224S213.624,209.1,213.624,209.1Z" transform="translate(-164.788 -178.475)" fill="#ffbe9d"/>
      <path id="Path_1337" data-name="Path 1337" d="M212.914,219.394c-.034-.03-.138.084-.369.167a1.31,1.31,0,0,1-.985-.034,3.272,3.272,0,0,1-1.329-3.009,4.388,4.388,0,0,1,.492-1.856,1.536,1.536,0,0,1,1.049-.95.67.67,0,0,1,.753.409c.089.217.03.364.069.379s.172-.118.128-.433a.822.822,0,0,0-.266-.492.985.985,0,0,0-.714-.236,1.842,1.842,0,0,0-1.443,1.083,4.486,4.486,0,0,0-.581,2.078c-.044,1.522.645,2.989,1.718,3.368a1.389,1.389,0,0,0,1.211-.128C212.889,219.571,212.938,219.409,212.914,219.394Z" transform="translate(-166.776 -180.933)" fill="#eb996e"/>
      <path id="Path_1338" data-name="Path 1338" d="M276.14,206.37a11.923,11.923,0,0,1,.241-1.689,6.894,6.894,0,0,1,8.942-4.88,6.4,6.4,0,0,1,1.743.906,6.3,6.3,0,0,1,1.477,1.428,6.8,6.8,0,0,1,.128,8.075,6.4,6.4,0,0,1-1.418,1.477,6.293,6.293,0,0,1-1.714.96,6.849,6.849,0,0,1-3.59.364,6.775,6.775,0,0,1-2.91-1.226,6.933,6.933,0,0,1-2.595-3.727,12.8,12.8,0,0,1-.3-1.684,1.015,1.015,0,0,0,0,.113v.335a3.507,3.507,0,0,0,.054.537,4.724,4.724,0,0,0,.138.724,7.005,7.005,0,0,0,9.277,4.786,7.064,7.064,0,0,0,3.122-10.882,6.673,6.673,0,0,0-1.526-1.477,6.549,6.549,0,0,0-1.787-.906,7,7,0,0,0-9.119,5.086,5.291,5.291,0,0,0-.118.729,3.887,3.887,0,0,0-.034.542v.33Q276.146,206.33,276.14,206.37Z" transform="translate(-200.493 -173.768)" fill="#455a64"/>
      <path id="Path_1339" data-name="Path 1339" d="M237.437,206.964a12.261,12.261,0,0,1,.236-1.689,6.938,6.938,0,0,1,2.462-3.811,6.81,6.81,0,0,1,2.871-1.32,6.894,6.894,0,0,1,3.6.251,6.544,6.544,0,0,1,1.743.906,6.4,6.4,0,0,1,1.477,1.428,6.8,6.8,0,0,1,.133,8.07,6.45,6.45,0,0,1-1.423,1.477,6.277,6.277,0,0,1-1.714.96,6.849,6.849,0,0,1-3.59.364,6.751,6.751,0,0,1-2.905-1.226,6.948,6.948,0,0,1-2.6-3.727,12.31,12.31,0,0,1-.29-1.684.4.4,0,0,0,0,.113v.335a2.914,2.914,0,0,0,.049.537,4.245,4.245,0,0,0,.143.724,6.894,6.894,0,0,0,2.585,3.851,7,7,0,0,0,2.954,1.29,7.086,7.086,0,0,0,3.708-.355,7.065,7.065,0,0,0-.212-13.29,7.031,7.031,0,0,0-9.134,5.082,4.117,4.117,0,0,0-.118.729,2.765,2.765,0,0,0-.034.542v.33A.3.3,0,0,0,237.437,206.964Z" transform="translate(-180.817 -174.058)" fill="#455a64"/>
      <path id="Path_1340" data-name="Path 1340" d="M265.1,211.561c.039.025.236-.3.694-.665a3.358,3.358,0,0,1,4.2-.074c.492.35.68.665.714.635a1.763,1.763,0,0,0-.6-.778,3.294,3.294,0,0,0-4.432.084A1.777,1.777,0,0,0,265.1,211.561Z" transform="translate(-194.889 -179.171)" fill="#455a64"/>
      <path id="Path_1341" data-name="Path 1341" d="M218.17,208.75a6.79,6.79,0,0,0,1.393.286c.872.138,2.078.266,3.407.384l3.412.305a9.3,9.3,0,0,0,1.413.108,6.854,6.854,0,0,0-1.393-.291c-.867-.133-2.073-.261-3.407-.379l-3.407-.305a8.633,8.633,0,0,0-1.418-.108Z" transform="translate(-171.067 -178.606)" fill="#455a64"/>
      <path id="Path_1342" data-name="Path 1342" d="M298.46,217.08a8.923,8.923,0,0,0,1.477-2.378,9.05,9.05,0,0,0,.428-2.772,1.97,1.97,0,0,1,.148.837,5.447,5.447,0,0,1-.335,2.024,5.353,5.353,0,0,1-1.064,1.753C298.755,216.928,298.48,217.105,298.46,217.08Z" transform="translate(-211.823 -180.22)" fill="#fff"/>
      <path id="Path_1343" data-name="Path 1343" d="M300.873,206.577c.039-.059.32.084.492.419s.1.64.03.635-.128-.256-.261-.527S300.828,206.631,300.873,206.577Z" transform="translate(-213.044 -177.496)" fill="#fff"/>
      <path id="Path_1344" data-name="Path 1344" d="M261.863,212.406c-.039,0,.1-.394.212-1.029a7.031,7.031,0,0,0-.9-4.83c-.33-.552-.6-.857-.566-.886a2.674,2.674,0,0,1,.719.788,6.263,6.263,0,0,1,.95,4.963,2.689,2.689,0,0,1-.414.995Z" transform="translate(-192.608 -177.037)" fill="#fff"/>
      <path id="Path_1345" data-name="Path 1345" d="M209.219,230.962a4.866,4.866,0,0,0-.251.419,2.62,2.62,0,0,0-.325,1.256,2.309,2.309,0,0,0,.7,1.714,2.462,2.462,0,0,0,2.127.684,2.511,2.511,0,0,0,1.763-1.384,2.339,2.339,0,0,0,.054-1.851,2.674,2.674,0,0,0-.739-1.064c-.236-.2-.394-.286-.384-.305a1.133,1.133,0,0,1,.443.227,2.526,2.526,0,0,1,.847,1.073,2.462,2.462,0,0,1,0,2.019,2.6,2.6,0,0,1-4.274.768,2.462,2.462,0,0,1-.714-1.886,2.516,2.516,0,0,1,.419-1.3A1.057,1.057,0,0,1,209.219,230.962Z" transform="translate(-166.139 -189.611)" fill="#e0e0e0"/>
      <path id="Path_1346" data-name="Path 1346" d="M294.469,237.434a2.083,2.083,0,0,0,1.31.079,2.57,2.57,0,0,0,1.206-.743,3.121,3.121,0,0,0,.778-1.546,2.807,2.807,0,0,0-.207-1.714,3.132,3.132,0,0,0-.881-1.128,5.127,5.127,0,0,0-1.182-.645.847.847,0,0,1,.369.049,2.871,2.871,0,0,1,.926.448,3.225,3.225,0,0,1,.985,1.177,2.954,2.954,0,0,1,.246,1.856,3.294,3.294,0,0,1-.867,1.669,2.659,2.659,0,0,1-1.334.753,1.837,1.837,0,0,1-1.029-.054C294.558,237.542,294.46,237.443,294.469,237.434Z" transform="translate(-209.797 -190.272)" fill="#e0e0e0"/>
      <path id="Path_1347" data-name="Path 1347" d="M202.984,419.881l7.3,2.162a51.525,51.525,0,0,0,5.988,2.176c2.432.556,4.092-.2,4.18-1.551s-1.8-1.526-1.8-1.526a37.418,37.418,0,0,1-4.678-2.162,8.287,8.287,0,0,1-2.61-2.954l2.61.359s5.49,3.939,7.558,5.131,2.521-.9,2.7-1.531-6.116-7.017-6.116-7.017,6.027,3.87,7.105,4.835,2.7,1.28,3.063.655,1.349-.63,0-3.3-12.147-9.848-12.147-9.848l2.954-.63,3.24,1.443a7.982,7.982,0,0,0,1.349,3.082c1.167,1.733,3.24,0,3.24,0l-1.285-6.647-6.4-4.008s-6.657.812-7.647,1.261a7.017,7.017,0,0,0-2.073,2.334l-1.8.729c-2.792.807-2.7,3.6-3.6,3.688s-27.166-5.032-27.166-5.032l-2.378-.62c-3.939,2.989-5.51,7.928-6.2,12.31,0,0-.724,2.147,0,3.329Z" transform="translate(-145.625 -274.949)" fill="#ffbe9d"/>
      <path id="Path_1348" data-name="Path 1348" d="M229.177,423.477a1.344,1.344,0,0,1-.025-.428,2.465,2.465,0,0,1,.044-.492,3.769,3.769,0,0,1,.128-.66,9.306,9.306,0,0,1,1.837-3.383,20.12,20.12,0,0,1,2.718-2.723,8.044,8.044,0,0,1,1.275-.95A13.231,13.231,0,0,1,234,415.9a25.473,25.473,0,0,0-2.639,2.748,10.144,10.144,0,0,0-1.856,3.274C229.212,422.866,229.231,423.482,229.177,423.477Z" transform="translate(-176.639 -283.218)" fill="#eb996e"/>
      <path id="Path_1349" data-name="Path 1349" d="M245.374,405.85a3.76,3.76,0,0,0-.551.384,5.977,5.977,0,0,0-1.2,1.374,6.532,6.532,0,0,0-.6,1.108,5.983,5.983,0,0,0-.286,1.408,3.546,3.546,0,0,1-.581,1.556,6.312,6.312,0,0,0-.872,1.477,3.939,3.939,0,0,0,0,2.777l.034.094-.084.054a5.475,5.475,0,0,0-2.319,3.186,8.863,8.863,0,0,0-.222,1.576,1.28,1.28,0,0,1-.049-.423,4.954,4.954,0,0,1,.128-1.187,5.466,5.466,0,0,1,2.334-3.358l-.049.148a4.215,4.215,0,0,1,0-2.954,6.1,6.1,0,0,1,.906-1.512,3.328,3.328,0,0,0,.551-1.477,4.634,4.634,0,0,1,.985-2.575,5.373,5.373,0,0,1,1.29-1.354,1.971,1.971,0,0,1,.443-.251A.573.573,0,0,1,245.374,405.85Z" transform="translate(-181.461 -278.654)" fill="#eb996e"/>
      <path id="Path_1350" data-name="Path 1350" d="M261.6,410.566a4.043,4.043,0,0,1-3.447-1.221c.049-.059.709.448,1.659.778S261.6,410.492,261.6,410.566Z" transform="translate(-191.361 -280.426)" fill="#eb996e"/>
      <path id="Path_1351" data-name="Path 1351" d="M262.981,424.184a16.28,16.28,0,0,1-2.762-1.054,17.385,17.385,0,0,1-2.659-1.29,17.784,17.784,0,0,1,2.762,1.054A17.4,17.4,0,0,1,262.981,424.184Z" transform="translate(-191.062 -286.771)" fill="#eb996e"/>
      <path id="Path_1352" data-name="Path 1352" d="M253.657,432.712a23.634,23.634,0,0,1-2.8-1.152,3.658,3.658,0,0,1,1.477.384,3.525,3.525,0,0,1,1.32.768Z" transform="translate(-187.661 -291.705)" fill="#eb996e"/>
      <path id="Path_1353" data-name="Path 1353" d="M264.9,427.535a3.525,3.525,0,0,0-1.738,2.191c-.034,0-.064-.172,0-.448a2.3,2.3,0,0,1,1.31-1.659C264.712,427.515,264.889,427.505,264.9,427.535Z" transform="translate(-193.886 -289.654)" fill="#eb996e"/>
      <path id="Path_1354" data-name="Path 1354" d="M270.789,419.425c.03.069-.453.315-.778.867a7.539,7.539,0,0,0-.414,1.083,1.3,1.3,0,0,1,.2-1.216C270.168,419.529,270.779,419.356,270.789,419.425Z" transform="translate(-197.136 -285.538)" fill="#eb996e"/>
      <path id="Path_1355" data-name="Path 1355" d="M270.308,402.293c-.025,0-.123-.113-.2-.35a1.857,1.857,0,0,1,0-.985,1.832,1.832,0,0,1,.492-.837c.177-.172.325-.231.34-.207a4.924,4.924,0,0,0-.566,1.108,5.37,5.37,0,0,0-.069,1.27Z" transform="translate(-197.399 -275.639)" fill="#eb996e"/>
      <path id="Path_1356" data-name="Path 1356" d="M318.575,394.411a8.64,8.64,0,0,0-7.026-7.8c-6.7-1.339-18.426,4.353-18.426,4.353l-32.863,22.9.985,2.831,33.355-4.648,3.053,1.172,23.428-15.392,22.109-15.983-2.462-1.925a86.244,86.244,0,0,1-10.291,6.106C326.34,387.862,320.416,391.083,318.575,394.411Z" transform="translate(-192.432 -265.492)" fill="#f5f5f5"/>
      <path id="Path_1357" data-name="Path 1357" d="M259.23,418.237l27.811-17.278,29.4-4.722a4.063,4.063,0,0,0,3.974,1.615h0l24.177-16.741.458,1.009-46.886,32.941a4.023,4.023,0,0,1-4.082-.8Z" transform="translate(-191.909 -266.096)" fill="#455a64"/>
      <path id="Path_1358" data-name="Path 1358" d="M352.37,411.83a1.084,1.084,0,0,1-.227.187l-.68.492c-.591.423-1.443,1.039-2.462,1.817-2.088,1.551-4.924,3.762-7.987,6.268s-5.815,4.835-7.785,6.534l-2.349,2.019-.64.542a1.144,1.144,0,0,1-.231.177,2.029,2.029,0,0,1,.2-.212l.606-.581c.532-.492,1.3-1.211,2.28-2.073,1.94-1.733,4.663-4.077,7.741-6.593s5.909-4.7,8.041-6.219c1.054-.763,1.925-1.354,2.536-1.753l.7-.453A1.626,1.626,0,0,1,352.37,411.83Z" transform="translate(-227.838 -281.69)" fill="#263238"/>
      <path id="Path_1359" data-name="Path 1359" d="M317.065,400.791c-2.664-2.861-6.859-3.88-10.759-3.575s-7.6,1.758-11.236,3.2L261.05,423.7l.305.876,34.2-23.143s7.642-2.462,11.025-2.885A18.045,18.045,0,0,1,317.065,400.791Z" transform="translate(-192.833 -274.246)" fill="#e0e0e0"/>
      <path id="Path_1360" data-name="Path 1360" d="M385.65,399.375l16.357-11.035S388.6,395.312,385.65,399.375Z" transform="translate(-256.081 -269.766)" fill="#e0e0e0"/>
      <path id="Path_1361" data-name="Path 1361" d="M261.05,423.61a.828.828,0,0,1,.138-.113l.423-.3,1.63-1.147,6.027-4.176L289.21,404.18,295,400.24h0a41.033,41.033,0,0,1,10.34-3.107,15.466,15.466,0,0,1,8.479,1.2,10.512,10.512,0,0,1,2.713,1.822,8.02,8.02,0,0,1,1.517,1.925,6.351,6.351,0,0,1,.591,1.423c.035.162.064.291.089.389a1.156,1.156,0,0,1,.025.133,8.041,8.041,0,0,0-.778-1.9,8.242,8.242,0,0,0-1.526-1.876,10.861,10.861,0,0,0-2.7-1.773,15.457,15.457,0,0,0-8.371-1.123,41.389,41.389,0,0,0-10.262,3.087h.025l-5.791,3.939L269.4,418.021l-6.076,4.112-1.654,1.1-.438.286A.954.954,0,0,1,261.05,423.61Z" transform="translate(-192.833 -274.153)" fill="#263238"/>
      <path id="Path_1362" data-name="Path 1362" d="M321.53,409.907a1.072,1.072,0,0,1,.256-.158c.172-.094.428-.236.758-.4.665-.345,1.635-.827,2.856-1.379a37.127,37.127,0,0,1,9.981-3.058,21.754,21.754,0,0,1,10.34.945,15.656,15.656,0,0,1,2.861,1.374,6.358,6.358,0,0,1,.719.492,1.6,1.6,0,0,1,.241.182s-.359-.207-1.009-.576a17.372,17.372,0,0,0-2.871-1.285,22.276,22.276,0,0,0-10.257-.862,39.39,39.39,0,0,0-9.941,2.954c-1.226.532-2.206.985-2.885,1.3l-.778.359A1.483,1.483,0,0,1,321.53,409.907Z" transform="translate(-223.533 -278.053)" fill="#263238"/>
      <path id="Path_1363" data-name="Path 1363" d="M404.362,382.42a2.056,2.056,0,0,1-.212.162l-.635.423-2.359,1.517c-2,1.28-4.752,3.048-7.77,5.037s-5.717,3.816-7.686,5.146l-2.329,1.566-.64.419a1.045,1.045,0,0,1-.231.128,1.262,1.262,0,0,1,.2-.172l.615-.458c.532-.394,1.31-.95,2.28-1.635,1.94-1.364,4.638-3.22,7.662-5.21s5.8-3.732,7.814-4.973c1.009-.62,1.832-1.113,2.4-1.448l.665-.384A1.355,1.355,0,0,1,404.362,382.42Z" transform="translate(-254.482 -266.761)" fill="#263238"/>
      <path id="Path_1364" data-name="Path 1364" d="M360.418,410.294a11.463,11.463,0,0,1-1.265,2.275c-.63.748-2.688,1.792-2.851,3.215s.172,4.762-2.053,7.3a12.5,12.5,0,0,1-5.274,3.447l-8.779-.857-14.023-5.52a1.231,1.231,0,0,1-.9-1.477,1.773,1.773,0,0,1,1.477-1.32l.335-.054s-.808-.66.35-1.817c.985-.985,3.087-.428,4.171-.069s7.435,3.013,8.573,3.422c1.009.359,1.787.68,1.787.68s-8.129-5.485-8.243-6.2a1.552,1.552,0,0,1,.788-1.856c.985-.714,2.6.049,4.166.709,1.167.492,8.607,4.166,8.607,4.166s.335-.325,0-.985-2.807-3.841-3.2-4.432-.492-.926-.1-1.423c.542-.7,1.97-1.039,3.284.162.832.768,3.791,2.757,3.791,2.757l13.659-9.966s1.7-.044,1.108,2.324S360.418,410.294,360.418,410.294Z" transform="translate(-225.417 -276.928)" fill="#ffbe9d"/>
      <path id="Path_1365" data-name="Path 1365" d="M373.462,433.116A3.481,3.481,0,0,1,371,431.048c.064-.039.463.571,1.142,1.137S373.5,433.042,373.462,433.116Z" transform="translate(-248.644 -291.444)" fill="#eb996e"/>
      <path id="Path_1366" data-name="Path 1366" d="M378.28,423.12c0-.03.182-.084.492-.044a2.132,2.132,0,0,1,1.709,1.413c.094.286.079.492.044.492a3.855,3.855,0,0,0-.867-1.221A3.94,3.94,0,0,0,378.28,423.12Z" transform="translate(-252.34 -287.391)" fill="#eb996e"/>
      <path id="Path_1367" data-name="Path 1367" d="M378.513,425.608c-.074,0-.108-.734-.4-1.571s-.7-1.453-.64-1.477a2.752,2.752,0,0,1,.881,1.413,2.713,2.713,0,0,1,.158,1.635Z" transform="translate(-251.928 -287.136)" fill="#eb996e"/>
      <path id="Path_1368" data-name="Path 1368" d="M395.2,413.969c0,.025-.172-.074-.35-.31a2.26,2.26,0,0,1-.246-2.191c.118-.266.251-.4.276-.379a3.22,3.22,0,0,0,.32,2.88Z" transform="translate(-260.538 -281.312)" fill="#eb996e"/>
      <path id="Path_1369" data-name="Path 1369" d="M365.088,439.311a2.152,2.152,0,0,1-.96,0,6.4,6.4,0,0,1-2.167-.808,11.985,11.985,0,0,1-1.866-1.354,3.205,3.205,0,0,1-.675-.67,3.834,3.834,0,0,1,.788.527,18.475,18.475,0,0,0,1.881,1.275,7.756,7.756,0,0,0,2.073.852A8.387,8.387,0,0,1,365.088,439.311Z" transform="translate(-242.766 -294.202)" fill="#eb996e"/>
      <path id="Path_1370" data-name="Path 1370" d="M374.286,439.37c.069,0,.074.492-.34.9s-.916.389-.906.32.389-.167.724-.492S374.212,439.36,374.286,439.37Z" transform="translate(-249.68 -295.669)" fill="#eb996e"/>
      <path id="Path_1371" data-name="Path 1371" d="M380.683,434.369c.03,0,.03.133-.064.31a1.211,1.211,0,0,1-.556.492,1.241,1.241,0,0,1-.744.108c-.2-.039-.3-.118-.281-.148a2.381,2.381,0,0,0,.916-.192C380.417,434.709,380.614,434.344,380.683,434.369Z" transform="translate(-252.724 -293.13)" fill="#eb996e"/>
      <path id="Path_1372" data-name="Path 1372" d="M343.456,439.2c-.025.064-3.289-1.3-7.287-3.043s-7.219-3.22-7.169-3.279,3.294,1.3,7.292,3.048S343.486,439.136,343.456,439.2Z" transform="translate(-227.324 -292.373)" fill="#eb996e"/>
    </g>
    <g id="freepik--Desk--inject-2" transform="translate(24.84 260.625)">
      <path id="Path_1373" data-name="Path 1373" d="M246.576,454.508c0,.069-49.643.128-110.863.128s-110.873-.059-110.873-.128,49.634-.128,110.873-.128S246.576,454.434,246.576,454.508Z" transform="translate(-24.84 -454.38)" fill="#263238"/>
    </g>
    <g id="freepik--Device--inject-2" transform="translate(31.138 205.822)">
      <path id="Path_1374" data-name="Path 1374" d="M37.678,345.6l10.685,52.455h92.743a1.851,1.851,0,0,0,1.851-1.851h0a1.851,1.851,0,0,0-1.851-1.856H122.434l-9.907-48.8a2.019,2.019,0,0,0-1.97-1.62l-70.871-.758a2.029,2.029,0,0,0-2.009,2.432Z" transform="translate(-37.634 -343.127)" fill="#e0e0e0"/>
      <path id="Path_1375" data-name="Path 1375" d="M37.674,345.558l-.03-.158a2.024,2.024,0,0,1,0-.492,2.048,2.048,0,0,1,.985-1.531,1.969,1.969,0,0,1,.611-.246,3.513,3.513,0,0,1,.729-.044h1.669l4.176.034,26.8.251,18.682.192,10.468.1,5.485.059,2.807.03h.719a2.163,2.163,0,0,1,.719.212,2.112,2.112,0,0,1,1.014,1.064,3.294,3.294,0,0,1,.2.714l.143.7c.094.492.192.945.291,1.418q.286,1.423.581,2.866l1.187,5.835q1.2,5.909,2.462,12.078c1.669,8.223,3.412,16.776,5.2,25.6l-.123-.1h18.361a3.677,3.677,0,0,1,.724.044,1.983,1.983,0,0,1,.532,3.678,2.024,2.024,0,0,1-.876.236H48.28v-.079c-3.27-16.126-5.909-29.239-7.765-38.328-.916-4.54-1.625-8.075-2.107-10.478q-.355-1.8-.542-2.733c-.123-.62-.177-.936-.177-.936s.074.315.2.926.325,1.536.571,2.728c.492,2.4,1.226,5.933,2.162,10.473,1.861,9.085,4.545,22.192,7.849,38.308l-.1-.079,43.543-.025h49.25a1.793,1.793,0,0,0,.758-.2,1.743,1.743,0,0,0,.881-1.256,1.768,1.768,0,0,0-.286-1.246,1.748,1.748,0,0,0-1.059-.7,3.683,3.683,0,0,0-.67-.039H122.327v-.1c-1.787-8.819-3.526-17.372-5.19-25.6q-1.256-6.175-2.462-12.083l-1.182-5.835c-.192-.96-.389-1.915-.581-2.861-.094-.492-.192-.95-.286-1.418l-.143-.709a3.51,3.51,0,0,0-.177-.67,1.92,1.92,0,0,0-1.556-1.142h-.694l-2.807-.034-5.49-.059L91.3,343.806l-18.686-.222-26.8-.33-4.171-.054-1.669-.025a3.113,3.113,0,0,0-.719.039,1.968,1.968,0,0,0-.6.231,2.024,2.024,0,0,0-.985,1.477A2.955,2.955,0,0,0,37.674,345.558Z" transform="translate(-37.629 -343.083)" fill="#263238"/>
      <circle id="Ellipse_17" data-name="Ellipse 17" cx="3.063" cy="3.063" r="3.063" transform="translate(36.654 23.417)" fill="#fff"/>
      <path id="Path_1376" data-name="Path 1376" d="M37.9,349h4.86l13.26.064,43.749.305,6.327.054h1.556a3.99,3.99,0,0,1,.793.049,2.216,2.216,0,0,1,1.694,1.581c.118.492.2.985.305,1.477l2.26,11.394c1.433,7.263,2.728,13.787,3.811,19.3s1.97,9.932,2.551,13.009c.3,1.531.522,2.723.68,3.54.074.4.133.709.172.926s.049.315.049.315-.03-.1-.074-.31-.113-.522-.2-.921l-.729-3.511c-.62-3.078-1.517-7.514-2.629-12.994s-2.413-12.029-3.865-19.287c-.724-3.629-1.477-7.44-2.275-11.389-.1-.492-.192-.985-.3-1.477a1.97,1.97,0,0,0-.837-1.133,1.906,1.906,0,0,0-.665-.266,3.664,3.664,0,0,0-.748-.044H106.1l-6.327-.049-43.749-.384L42.76,349.1l-3.6-.1H37.9Z" transform="translate(-37.767 -346.087)" fill="#263238"/>
    </g>
  </g>
</svg>
